<?xml version="1.0" standalone="no"?>
<!DOCTYPE svg PUBLIC "-//W3C//DTD SVG 20010904//EN"
 "http://www.w3.org/TR/2001/REC-SVG-20010904/DTD/svg10.dtd">
<svg version="1.0" xmlns="http://www.w3.org/2000/svg"
 width="193.000000pt" height="260.000000pt" viewBox="0 0 193.000000 260.000000"
 preserveAspectRatio="xMidYMid meet">

<g transform="translate(0.000000,260.000000) scale(0.100000,-0.100000)"
fill="#000000" stroke="none">
<path d="M161 2544 c-44 -19 -69 -48 -82 -97 -21 -78 13 -127 87 -127 25 0 59
7 74 17 39 22 70 82 70 132 0 79 -65 112 -149 75z m87 -36 c27 -27 4 -127 -33
-142 -27 -10 -70 -7 -83 6 -27 27 -4 111 37 133 32 18 63 19 79 3z"/>
<path d="M1026 2518 c-4 -18 -15 -70 -25 -115 l-19 -83 22 0 c20 0 25 9 40 81
10 45 19 79 22 77 2 -3 5 -38 7 -79 3 -72 4 -74 30 -77 17 -2 27 2 28 10 0 7
15 45 34 83 32 65 34 67 29 30 -3 -22 -10 -56 -15 -75 -12 -49 -12 -52 13 -48
18 3 25 17 45 103 12 55 23 106 23 113 0 7 -13 12 -34 12 -32 0 -35 -3 -72
-82 l-39 -83 -2 50 c-6 104 -10 115 -47 115 -30 0 -34 -4 -40 -32z"/>
<path d="M1772 2452 c-27 -119 -27 -132 -3 -132 16 0 22 14 35 78 9 42 21 94
25 115 8 34 7 37 -13 37 -20 0 -24 -11 -44 -98z"/>
<path d="M1494 2515 c-3 -14 -12 -25 -20 -25 -17 0 -19 -27 -3 -32 9 -3 8 -17
-1 -55 -17 -64 -10 -83 30 -83 29 0 44 24 19 32 -19 6 0 100 22 105 20 5 27
33 9 33 -5 0 -10 11 -10 25 0 18 -5 25 -20 25 -13 0 -22 -9 -26 -25z"/>
<path d="M694 2490 c-52 -21 -81 -100 -54 -151 17 -31 91 -26 130 9 42 37 52
100 21 131 -22 22 -60 26 -97 11z m64 -53 c10 -53 -29 -98 -68 -77 -24 13 -24
20 -5 66 12 30 19 35 42 32 17 -2 29 -10 31 -21z"/>
<path d="M1322 2485 c-34 -15 -62 -63 -62 -108 0 -57 86 -77 137 -32 l28 24
-28 1 c-16 0 -37 -4 -47 -10 -14 -7 -23 -6 -35 6 -22 22 -15 26 52 28 l58 1 3
37 c2 28 -2 40 -20 52 -27 19 -43 20 -86 1z m63 -45 c0 -16 -28 -25 -52 -16
-12 5 -13 9 -3 22 16 18 55 15 55 -6z"/>
<path d="M1623 2490 c-12 -5 -27 -18 -33 -29 -9 -19 -8 -21 14 -21 14 0 28 5
31 10 9 15 45 12 45 -4 0 -15 -21 -26 -50 -26 -53 0 -90 -43 -70 -81 8 -14 23
-17 78 -17 l69 1 12 75 c8 45 9 78 3 84 -13 13 -74 19 -99 8z m47 -103 c0 -20
-22 -37 -47 -37 -35 0 -26 33 12 43 33 8 35 8 35 -6z"/>
<path d="M355 2476 c-2 -6 -9 -38 -16 -71 -6 -33 -14 -66 -17 -73 -3 -10 2
-13 19 -10 20 2 26 12 37 58 15 63 33 86 58 76 17 -6 16 -29 -2 -108 -5 -24
-3 -28 14 -28 17 0 24 9 32 43 19 78 25 92 44 95 29 6 35 -16 20 -72 -18 -67
-18 -68 9 -64 19 3 24 13 36 70 7 36 11 74 8 82 -7 18 -72 22 -82 6 -5 -7 -11
-8 -19 -1 -16 14 -137 11 -141 -3z"/>
<path d="M835 2238 c-33 -62 -103 -191 -156 -288 -52 -96 -116 -213 -141 -260
-25 -47 -68 -127 -97 -179 -28 -52 -51 -95 -51 -97 0 -2 31 12 68 31 166 83
272 109 442 109 178 0 305 -32 457 -114 40 -21 73 -37 73 -35 0 4 -77 144
-230 415 -65 115 -252 454 -272 493 -11 20 -23 37 -27 37 -3 0 -33 -51 -66
-112z m116 -478 c12 -7 19 -21 19 -38 0 -35 -46 -107 -77 -121 -30 -14 -113
-14 -114 -1 -1 6 -2 16 -3 23 -4 21 23 79 47 100 24 21 74 46 95 47 7 0 22 -5
33 -10z m255 0 c24 -9 26 -14 21 -45 -12 -75 -93 -141 -156 -129 -43 9 -50 41
-19 96 16 30 37 50 68 66 51 25 50 25 86 12z m-498 -28 c5 -35 -16 -78 -55
-112 -29 -26 -42 -30 -88 -30 -30 0 -55 2 -55 5 0 3 18 42 40 86 l41 80 57 -3
c51 -3 57 -5 60 -26z m276 -126 c-7 -17 -44 -23 -44 -6 0 10 41 31 48 25 1 -1
0 -10 -4 -19z m259 -2 c-3 -8 -14 -14 -24 -14 -21 0 -24 11 -8 27 15 15 39 5
32 -13z m-519 1 c-4 -8 -15 -15 -25 -15 -12 0 -16 5 -13 15 4 8 15 15 25 15
12 0 16 -5 13 -15z"/>
<path d="M873 1724 c-32 -16 -69 -76 -58 -94 3 -6 19 -10 35 -10 46 0 97 78
69 106 -12 11 -19 11 -46 -2z"/>
<path d="M1119 1717 c-22 -16 -51 -75 -44 -87 8 -13 41 -13 66 0 21 12 49 60
49 85 0 18 -47 20 -71 2z"/>
<path d="M590 1683 c-14 -27 -26 -51 -28 -55 -2 -5 9 -8 25 -8 36 0 70 34 79
78 6 30 5 32 -23 32 -25 0 -33 -7 -53 -47z"/>
<path d="M855 1339 c-104 -10 -242 -47 -318 -85 -176 -89 -314 -240 -362 -400
-21 -68 -20 -69 22 -23 97 108 261 201 428 245 81 21 125 26 230 27 185 2 330
-28 492 -99 83 -37 214 -126 268 -182 28 -29 53 -52 57 -52 3 0 -2 31 -11 68
-46 178 -154 317 -315 406 -72 40 -206 82 -291 91 -33 3 -71 8 -85 9 -14 2
-65 0 -115 -5z"/>
<path d="M503 1022 c-36 -23 -35 -102 0 -127 51 -36 117 -3 117 58 0 50 -24
77 -68 77 -20 0 -42 -4 -49 -8z m68 -22 c30 -17 26 -77 -6 -92 -48 -22 -88 48
-49 86 18 19 28 20 55 6z"/>
<path d="M970 955 c0 -41 4 -75 9 -75 13 0 18 20 15 65 -1 22 -3 50 -3 63 -1
12 -5 22 -11 22 -6 0 -10 -32 -10 -75z"/>
<path d="M1030 1020 c0 -5 5 -10 10 -10 6 0 10 5 10 10 0 6 -4 10 -10 10 -5 0
-10 -4 -10 -10z"/>
<path d="M1080 1020 c0 -5 7 -10 15 -10 8 0 15 5 15 10 0 6 -7 10 -15 10 -8 0
-15 -4 -15 -10z"/>
<path d="M859 986 c-19 -9 -24 -19 -24 -51 0 -34 4 -41 27 -49 41 -14 78 6 78
42 0 51 -39 79 -81 58z m49 -47 c3 -26 -19 -46 -39 -33 -11 6 -12 48 -2 58 15
14 38 0 41 -25z"/>
<path d="M640 934 c0 -40 4 -54 14 -54 10 0 16 14 18 43 2 29 8 42 18 42 10 0
16 -13 18 -42 2 -29 8 -43 18 -43 10 0 14 12 14 45 0 32 4 45 14 45 17 0 26
-22 26 -61 0 -16 5 -29 11 -29 6 0 9 21 7 53 l-3 52 -77 2 -78 1 0 -54z"/>
<path d="M1030 925 c0 -37 -4 -65 -10 -65 -5 0 -10 -4 -10 -10 0 -5 9 -10 19
-10 21 0 30 27 26 75 -2 17 -4 40 -4 53 -1 12 -5 22 -11 22 -6 0 -10 -28 -10
-65z"/>
<path d="M1082 938 c4 -74 28 -77 28 -4 0 44 -3 56 -16 56 -12 0 -14 -10 -12
-52z"/>
<path d="M1152 978 c-16 -16 -16 -70 0 -86 16 -16 50 -15 73 1 23 18 3 32 -24
18 -24 -13 -42 6 -34 37 6 25 15 27 43 10 24 -15 37 -4 20 17 -15 18 -61 20
-78 3z"/>
<path d="M1266 974 c-9 -23 -1 -28 22 -15 25 13 32 14 32 2 0 -5 -10 -13 -22
-17 -38 -11 -49 -24 -38 -44 7 -14 21 -18 55 -18 l45 1 -6 46 c-8 60 -9 61
-49 61 -21 0 -35 -6 -39 -16z m58 -59 c-6 -16 -34 -21 -34 -7 0 13 11 22 26
22 8 0 11 -6 8 -15z"/>
</g>
</svg>
