<?xml version="1.0" encoding="UTF-8"?>
<svg version="1.1" xmlns="http://www.w3.org/2000/svg" width="193" height="260">
<path d="M0 0 C63.69 0 127.38 0 193 0 C193 85.8 193 171.6 193 260 C129.31 260 65.62 260 0 260 C0 174.2 0 88.4 0 0 Z " fill="#FEFDFD" transform="translate(0,0)"/>
<path d="M0 0 C2.18033858 2.7851244 3.96338007 5.59672841 5.63671875 8.7109375 C6.12769043 9.61932373 6.61866211 10.52770996 7.12451172 11.46362305 C7.64029785 12.42437744 8.15608398 13.38513184 8.6875 14.375 C12.18841061 20.84899 15.6969289 27.31217676 19.375 33.6875 C22.11728562 38.44567525 24.78010182 43.23707145 27.39453125 48.06640625 C29.27342271 51.49961181 31.19816401 54.90609138 33.125 58.3125 C37.47753594 66.0119762 41.71228412 73.77400556 45.92626953 81.55004883 C46.41208496 82.4448999 46.89790039 83.33975098 47.3984375 84.26171875 C47.82817871 85.05537842 48.25791992 85.84903809 48.70068359 86.66674805 C49.64896105 88.36962058 50.66766596 90.03381451 51.72509766 91.67114258 C52.14581543 92.43966553 52.5665332 93.20818848 53 94 C52.67 94.66 52.34 95.32 52 96 C50.59814453 95.23816406 50.59814453 95.23816406 49.16796875 94.4609375 C35.83768289 87.40271542 21.30972777 81.13198041 6 81 C4.28296875 80.92652344 4.28296875 80.92652344 2.53125 80.8515625 C-13.72263517 80.4149912 -29.39738799 84.22805386 -43.74609375 91.8515625 C-46.1152384 93.05871766 -48.51932778 94.04623184 -51 95 C-49.75260139 90.94215259 -48.26068401 87.40660363 -46.13671875 83.734375 C-45.57919922 82.76113281 -45.02167969 81.78789063 -44.44726562 80.78515625 C-43.86654297 79.78355469 -43.28582031 78.78195313 -42.6875 77.75 C-38.96963009 71.30793776 -35.34750211 64.88485484 -32.15161133 58.16503906 C-30.95665687 55.91851455 -29.52717962 54.02997809 -28 52 C-26.9852046 49.67306323 -25.98645423 47.33909224 -25 45 C-23.77868511 42.74716916 -22.53595196 40.52722836 -21.25 38.3125 C-15.95393889 29.06163284 -10.96620996 19.64625657 -5.96582031 10.23364258 C-5.64518616 9.63167053 -5.324552 9.02969849 -4.99420166 8.40948486 C-4.11056771 6.7504064 -3.22905079 5.09020089 -2.34765625 3.42993164 C-1 1 -1 1 0 0 Z " fill="#2D1D5E" transform="translate(90,24)"/>
<path d="M0 0 C1.0415625 -0.00386719 2.083125 -0.00773437 3.15625 -0.01171875 C18.02681307 0.00705721 18.02681307 0.00705721 23.9375 2.5 C26.66695478 3.61611426 29.35121904 4.51026725 32.1875 5.3125 C48.7391238 10.78198122 60.77788647 23.18327142 68.64453125 38.28125 C71.43787768 44.52804202 72.83349316 50.28308275 73 57.125 C70.4259052 55.13926972 68.04945197 53.1772778 65.8125 50.8125 C61.88515213 47.05970092 57.51038352 44.13420724 53 41.125 C52.23429688 40.61066406 51.46859375 40.09632813 50.6796875 39.56640625 C46.68717086 36.81117469 46.68717086 36.81117469 42 36.125 C42 39.755 42 43.385 42 47.125 C37 49.125 37 49.125 34.625 48.625 C31.02764784 47.93979006 28.42429894 48.98356702 25 50.125 C20.21055351 45.33555351 19.16439013 41.85005081 19 35.125 C18.34 35.125 17.68 35.125 17 35.125 C17 38.755 17 42.385 17 46.125 C16.01 46.125 15.02 46.125 14 46.125 C14 41.175 14 36.225 14 31.125 C16.31 31.455 18.62 31.785 21 32.125 C21 32.785 21 33.445 21 34.125 C22.32 33.465 23.64 32.805 25 32.125 C25 30.805 25 29.485 25 28.125 C4.50475216 22.86820361 -22.34179229 21.446672 -42 30.125 C-42.66692871 30.40907715 -43.33385742 30.6931543 -44.02099609 30.98583984 C-56.83785343 36.52510004 -68.32572367 44.04120247 -77 55.125 C-77.33 55.125 -77.66 55.125 -78 55.125 C-77.58363036 44.29938937 -71.6978534 35.3175721 -65 27.125 C-64.2575 26.135 -63.515 25.145 -62.75 24.125 C-61.88375 23.135 -61.88375 23.135 -61 22.125 C-60.34 22.125 -59.68 22.125 -59 22.125 C-58.67 21.135 -58.34 20.145 -58 19.125 C-40.9077465 5.50325483 -21.58545572 -0.08014402 0 0 Z " fill="#2C1E5B" transform="translate(94,125.875)"/>
<path d="M0 0 C36.3 0 72.6 0 110 0 C109.34 1.32 108.68 2.64 108 4 C108.99 4.33 109.98 4.66 111 5 C111.495 11.93 111.495 11.93 112 19 C114.31 14.38 116.62 9.76 119 5 C121.31 5 123.62 5 126 5 C125.59595736 10.97557803 125.10281288 16.34869037 123 22 C122.63079809 23.99369031 122.28674418 25.99279077 122 28 C120.35 28 118.7 28 117 28 C117.66666667 23.33333333 118.33333333 18.66666667 119 14 C117.02 18.62 115.04 23.24 113 28 C111.02 28 109.04 28 107 28 C106.505 20.575 106.505 20.575 106 13 C105.01 17.95 104.02 22.9 103 28 C101.68 28 100.36 28 99 28 C99.495 28.45375 99.99 28.9075 100.5 29.375 C102 31 102 31 102 33 C101.34 33 100.68 33 100 33 C99.34 34.32 98.68 35.64 98 37 C94.78119883 33.2064129 92.3836813 29.34170523 90 25 C89.54625 25.66 89.0925 26.32 88.625 27 C88.08875 27.66 87.5525 28.32 87 29 C86.34 29 85.68 29 85 29 C84.505 28.01 84.505 28.01 84 27 C83.01 28.485 83.01 28.485 82 30 C81.01 28.515 81.01 28.515 80 27 C79.34 27.33 78.68 27.66 78 28 C75.85869187 28.17392782 73.71037838 28.26700425 71.5625 28.3125 C69.83193359 28.36857422 69.83193359 28.36857422 68.06640625 28.42578125 C65 28 65 28 63.15234375 26.23046875 C62 24 62 24 61 20 C60.01 22.64 59.02 25.28 58 28 C56.35 28 54.7 28 53 28 C53.66666667 23.33333333 54.33333333 18.66666667 55 14 C53.68 14.33 52.36 14.66 51 15 C50.01 19.29 49.02 23.58 48 28 C46.35 28 44.7 28 43 28 C43.14204741 26.41632253 43.28880153 24.83306682 43.4375 23.25 C43.51871094 22.36828125 43.59992187 21.4865625 43.68359375 20.578125 C43.96238465 18.30649548 44.38790577 16.20148177 45 14 C43.35 14 41.7 14 40 14 C39.01 18.62 38.02 23.24 37 28 C35.35 28 33.7 28 32 28 C31.67 26.02 31.34 24.04 31 22 C30.071875 22.61875 29.14375 23.2375 28.1875 23.875 C22.32276372 27.78482419 19.03525625 28.91261945 12 28 C8.50982566 25.81864104 8.05958233 24.17874699 6.75 20.25 C6.5025 19.1775 6.255 18.105 6 17 C5.34 17.66 4.68 18.32 4 19 C3.01 18.67 2.02 18.34 1 18 C-1.68741925 12.6251615 0 6.00925213 0 0 Z " fill="#FAFAFA" transform="translate(0,0)"/>
<path d="M0 0 C9.9 0 19.8 0 30 0 C29.67 1.65 29.34 3.3 29 5 C30.98 5 32.96 5 35 5 C34.52524018 7.37379908 34.0502771 9.74755461 33.57421875 12.12109375 C33.1977985 14.00831634 32.82526187 15.89631863 32.45703125 17.78515625 C32.28558594 18.66042969 32.11414063 19.53570313 31.9375 20.4375 C31.70353516 21.64212891 31.70353516 21.64212891 31.46484375 22.87109375 C31 25 31 25 30 28 C27.66666667 28 25.33333333 28 23 28 C21.8759375 28.01160156 20.751875 28.02320312 19.59375 28.03515625 C18.22916799 28.04446626 16.86458457 28.05357281 15.5 28.0625 C14.81035156 28.07087891 14.12070313 28.07925781 13.41015625 28.08789062 C8.22630611 28.11315305 8.22630611 28.11315305 6 27 C6 28.32 6 29.64 6 31 C4.02 31.33 2.04 31.66 0 32 C0 31.34 0 30.68 0 30 C-0.99 30.33 -1.98 30.66 -3 31 C-7.90014881 32.58534226 -12.22969369 31.59874396 -17 30 C-20.42645966 28.00123186 -21.67217741 26.92200102 -23 23.1875 C-23 19.06213991 -22.02735596 16.5816622 -20 13 C-17.5485819 10.69278297 -16.04970521 9.97706526 -12.67578125 10.05078125 C-10.4404693 10.28589255 -8.21794911 10.6358591 -6 11 C-5.34 8.03 -4.68 5.06 -4 2 C-2.68 2 -1.36 2 0 2 C0 1.34 0 0.68 0 0 Z " fill="#E6E4ED" transform="translate(149,0)"/>
<path d="M0 0 C1.4706903 0.01153674 2.94139552 0.0213083 4.41210938 0.02929688 C10.34644688 0.08546255 16.08825852 0.19763738 21.9375 1.3125 C20.6175 2.6325 19.2975 3.9525 17.9375 5.3125 C18.9275 5.6425 19.9175 5.9725 20.9375 6.3125 C20.79703745 9.27117918 20.65037776 12.22932264 20.5 15.1875 C20.46068359 16.02925781 20.42136719 16.87101562 20.38085938 17.73828125 C20.31801758 18.94677734 20.31801758 18.94677734 20.25390625 20.1796875 C20.21724854 20.92331543 20.18059082 21.66694336 20.14282227 22.43310547 C19.9375 24.3125 19.9375 24.3125 18.9375 26.3125 C17.6175 26.3125 16.2975 26.3125 14.9375 26.3125 C15.2675 20.7025 15.5975 15.0925 15.9375 9.3125 C15.2775 9.3125 14.6175 9.3125 13.9375 9.3125 C13.9375 13.6025 13.9375 17.8925 13.9375 22.3125 C12.6175 22.3125 11.2975 22.3125 9.9375 22.3125 C9.4425 20.3325 9.4425 20.3325 8.9375 18.3125 C8.41736328 19.29476562 8.41736328 19.29476562 7.88671875 20.296875 C5.9375 22.3125 5.9375 22.3125 2.58203125 22.703125 C1.31746094 22.65671875 0.05289063 22.6103125 -1.25 22.5625 C-3.15845703 22.50835937 -3.15845703 22.50835937 -5.10546875 22.453125 C-6.08128906 22.40671875 -7.05710938 22.3603125 -8.0625 22.3125 C-8.5575 18.3525 -8.5575 18.3525 -9.0625 14.3125 C-10.0525 13.9825 -11.0425 13.6525 -12.0625 13.3125 C-12.0625 16.2825 -12.0625 19.2525 -12.0625 22.3125 C-13.0525 22.3125 -14.0425 22.3125 -15.0625 22.3125 C-15.3925 19.6725 -15.7225 17.0325 -16.0625 14.3125 C-16.7225 14.3125 -17.3825 14.3125 -18.0625 14.3125 C-18.3925 17.2825 -18.7225 20.2525 -19.0625 23.3125 C-21.48085897 23.22527063 -23.89563316 23.11838627 -26.3125 23 C-26.99441406 22.97744141 -27.67632812 22.95488281 -28.37890625 22.93164062 C-32.49491275 22.71185387 -35.18012274 22.36197159 -38.0625 19.3125 C-39.0390625 17.33984375 -39.0390625 17.33984375 -39.6875 15.25 C-40.56314875 12.48398013 -40.95482408 11.42017592 -43.0625 9.3125 C-28.76992675 2.06221336 -15.77531792 -0.32252711 0 0 Z " fill="#F8F6F8" transform="translate(86.0625,149.6875)"/>
<path d="M0 0 C0.33 0.66 0.66 1.32 1 2 C7.93 2.33 14.86 2.66 22 3 C22.495 5.475 22.495 5.475 23 8 C24.67828408 8.96624167 24.67828408 8.96624167 27 9 C28.43594625 7.72722946 29.87023876 6.45235762 31.28515625 5.15625 C34.47669366 3.00432501 37.26397341 3.57127564 41 4 C41.99 4.66 42.98 5.32 44 6 C43.43048055 11.97995423 41.39467224 15.94742379 36.8125 19.875 C32.83344153 21.46662339 29.22628765 21.2136887 25 21 C24.01 21 23.02 21 22 21 C19.66666667 21 17.33333333 21 15 21 C15.33 19.68 15.66 18.36 16 17 C18.64 17.33 21.28 17.66 24 18 C24.33 16.02 24.66 14.04 25 12 C24.34 12 23.68 12 23 12 C22.67 13.32 22.34 14.64 22 16 C22 14.02 22 12.04 22 10 C21.34 10 20.68 10 20 10 C20 10.66 20 11.32 20 12 C19.401875 12.226875 18.80375 12.45375 18.1875 12.6875 C15.81155844 13.876424 15.81155844 13.876424 14.5625 16.4375 C12.68366294 19.51879278 11.27251587 20.51249279 8 22 C4.1875 22.6875 4.1875 22.6875 1 23 C1.33 23.66 1.66 24.32 2 25 C-1.96 25.495 -1.96 25.495 -6 26 C-6.33 25.01 -6.66 24.02 -7 23 C-6.67 22.67 -6.34 22.34 -6 22 C-7.98 21.67 -9.96 21.34 -12 21 C-12 21.66 -12 22.32 -12 23 C-13.33333333 22.33333333 -14.66666667 21.66666667 -16 21 C-18.04055005 20.92934383 -20.08334257 20.91578024 -22.125 20.9375 C-23.22070312 20.94652344 -24.31640625 20.95554687 -25.4453125 20.96484375 C-26.70988281 20.98224609 -26.70988281 20.98224609 -28 21 C-26.32713148 14.81038647 -23.11786907 9.55794051 -20 4 C-15.38 4 -10.76 4 -6 4 C-6 5.32 -6 6.64 -6 8 C-5.34 8 -4.68 8 -4 8 C-4 6.02 -4 4.04 -4 2 C-2.68 1.34 -1.36 0.68 0 0 Z " fill="#30225F" transform="translate(79,80)"/>
<path d="M0 0 C2.78175925 3.47065888 4.91550546 7.24560951 7.0625 11.125 C7.85281546 12.5469023 8.64318214 13.96877614 9.43359375 15.390625 C9.84722168 16.13634766 10.26084961 16.88207031 10.68701172 17.65039062 C12.05824648 20.10423282 13.45092722 22.54496378 14.84765625 24.984375 C15.77350225 26.61454656 16.69928495 28.24475408 17.625 29.875 C18.07496338 30.65375488 18.52492676 31.43250977 18.98852539 32.23486328 C20.05371218 34.12325397 21.03549981 36.05825293 22 38 C21.505 38.99 21.505 38.99 21 40 C19.59814453 39.23816406 19.59814453 39.23816406 18.16796875 38.4609375 C1.63377097 29.69030782 -13.40989585 25.45799887 -32.1887207 24.58056641 C-33.30335693 24.52819824 -34.41799316 24.47583008 -35.56640625 24.421875 C-36.56615479 24.38674805 -37.56590332 24.35162109 -38.59594727 24.31542969 C-41 24 -41 24 -43 22 C-42.40832031 21.95101562 -41.81664063 21.90203125 -41.20703125 21.8515625 C-34.8356128 21.35855552 -34.8356128 21.35855552 -29 19 C-27.81608777 16.62374655 -27.81608777 16.62374655 -27 14 C-26.04175747 12.63634717 -25.05278825 11.29205831 -24 10 C-24 10.66 -24 11.32 -24 12 C-23.34 12 -22.68 12 -22 12 C-22 11.34 -22 10.68 -22 10 C-21.34 10 -20.68 10 -20 10 C-19.67 10.66 -19.34 11.32 -19 12 C-18.34 12 -17.68 12 -17 12 C-17.33 13.98 -17.66 15.96 -18 18 C-18.99 18 -19.98 18 -21 18 C-21.33 18.66 -21.66 19.32 -22 20 C-22 19.01 -22 18.02 -22 17 C-23.32 17 -24.64 17 -26 17 C-26.33 18.32 -26.66 19.64 -27 21 C-24.69 21 -22.38 21 -20 21 C-19.67 20.34 -19.34 19.68 -19 19 C-18.34 19.33 -17.68 19.66 -17 20 C-12.38799786 20.56266426 -8.87265291 20.40400598 -4.625 18.4375 C-1.33731292 15.38464771 -0.38870491 13.243265 1 9 C1 8.01 1 7.02 1 6 C-1.64 5.34 -4.28 4.68 -7 4 C-7 3.67 -7 3.34 -7 3 C-5.5459375 2.814375 -5.5459375 2.814375 -4.0625 2.625 C-3.051875 2.41875 -2.04125 2.2125 -1 2 C-0.67 1.34 -0.34 0.68 0 0 Z " fill="#2F235E" transform="translate(121,80)"/>
<path d="M0 0 C9.9 0 19.8 0 30 0 C29.67 1.65 29.34 3.3 29 5 C30.98 5 32.96 5 35 5 C34.52524018 7.37379908 34.0502771 9.74755461 33.57421875 12.12109375 C33.1977985 14.00831634 32.82526187 15.89631863 32.45703125 17.78515625 C32.28558594 18.66042969 32.11414063 19.53570313 31.9375 20.4375 C31.70353516 21.64212891 31.70353516 21.64212891 31.46484375 22.87109375 C31 25 31 25 30 28 C27.33333333 28 24.66666667 28 22 28 C21.88478735 22.58500559 22.31798844 17.37084106 23 12 C22.19175781 11.87882813 21.38351563 11.75765625 20.55078125 11.6328125 C19.48214844 11.46523437 18.41351563 11.29765625 17.3125 11.125 C16.25675781 10.96257813 15.20101562 10.80015625 14.11328125 10.6328125 C11.20205086 10.04106931 8.71044393 9.1968194 6 8 C5.67 8.99 5.34 9.98 5 11 C5.66 11 6.32 11 7 11 C7 11.99 7 12.98 7 14 C6.01 14.33 5.02 14.66 4 15 C3.34 18.3 2.68 21.6 2 25 C2.66 25 3.32 25 4 25 C4 25.99 4 26.98 4 28 C1.69 28 -0.62 28 -3 28 C-3.21192221 22.80790596 -2.5912689 18.873261 -1 14 C-1.66 14 -2.32 14 -3 14 C-3 13.01 -3 12.02 -3 11 C-2.01 11 -1.02 11 0 11 C-0.33 10.67 -0.66 10.34 -1 10 C-1.66 10 -2.32 10 -3 10 C-3.33 7.36 -3.66 4.72 -4 2 C-2.68 2 -1.36 2 0 2 C0 1.34 0 0.68 0 0 Z " fill="#FAFAFA" transform="translate(149,0)"/>
<path d="M0 0 C2.31279611 1.15639806 4.17409828 2.17409828 6 4 C6.74203043 8.79790127 7.0739797 13.22034254 4.5078125 17.47265625 C-1.01786598 23.7893551 -1.01786598 23.7893551 -5.2421875 24.23828125 C-12.31005846 24.4375239 -12.31005846 24.4375239 -15.5625 22.375 C-17.77009982 18.72766117 -18.30860753 16.03106815 -17.6640625 11.7890625 C-16.51615873 7.30180231 -15.11988485 4.58254751 -11.25 1.9375 C-7.38819682 -0.11031857 -4.38903798 -0.6624963 0 0 Z " fill="#372E61" transform="translate(25,4)"/>
<path d="M0 0 C12.87 0 25.74 0 39 0 C39.495 1.485 39.495 1.485 40 3 C37.525 2.505 37.525 2.505 35 2 C35.495 3.485 35.495 3.485 36 5 C35.40206327 7.35188447 34.74118205 9.68925595 34 12 C33.33613281 11.89300781 32.67226562 11.78601562 31.98828125 11.67578125 C26.41831412 10.90338224 26.41831412 10.90338224 21 12.0625 C17.57174599 15.38362107 17.04761048 18.7145171 16.875 23.375 C16.91625 24.24125 16.9575 25.1075 17 26 C16.01 25.67 15.02 25.34 14 25 C13.12109375 18.84765625 13.12109375 18.84765625 13 17 C13.33 16.67 13.66 16.34 14 16 C14.39454223 14.15400312 14.74176866 12.29774178 15.0625 10.4375 C15.23910156 9.42558594 15.41570312 8.41367188 15.59765625 7.37109375 C15.73042969 6.58863281 15.86320312 5.80617188 16 5 C13.69 5 11.38 5 9 5 C8.7525 5.639375 8.505 6.27875 8.25 6.9375 C7.19069821 9.53278938 6.1121724 12.11456386 5 14.6875 C4.505 15.83798828 4.505 15.83798828 4 17.01171875 C3 19 3 19 1 21 C1 15.72 1 10.44 1 5 C-1.64 5 -4.28 5 -7 5 C-7 4.67 -7 4.34 -7 4 C-6.030625 3.71125 -5.06125 3.4225 -4.0625 3.125 C-0.89335797 2.35785318 -0.89335797 2.35785318 0 0 Z " fill="#FBFBFB" transform="translate(110,0)"/>
<path d="M0 0 C3.29735801 0.75792352 6.43967158 1.79988271 9.625 2.9375 C10.58664063 3.27652344 11.54828125 3.61554688 12.5390625 3.96484375 C15 5 15 5 17 7 C17.1953125 9.8203125 17.1953125 9.8203125 17.125 13.125 C17.10695312 14.22070312 17.08890625 15.31640625 17.0703125 16.4453125 C17.04710937 17.28835937 17.02390625 18.13140625 17 19 C12.296875 21.0625 12.296875 21.0625 9.625 20.5 C6.02764784 19.81479006 3.42429894 20.85856702 0 22 C-4.78944649 17.21055351 -5.83560987 13.72505081 -6 7 C-6.66 7 -7.32 7 -8 7 C-8 10.63 -8 14.26 -8 18 C-8.99 18 -9.98 18 -11 18 C-11 13.05 -11 8.1 -11 3 C-8.69 3.33 -6.38 3.66 -4 4 C-4 4.66 -4 5.32 -4 6 C-2.68 5.34 -1.36 4.68 0 4 C0 2.68 0 1.36 0 0 Z " fill="#E5E4ED" transform="translate(119,154)"/>
<path d="M0 0 C2.64 0 5.28 0 8 0 C8.33 4.62 8.66 9.24 9 14 C11.31 9.38 13.62 4.76 16 0 C18.31 0 20.62 0 23 0 C22.59595736 5.97557803 22.10281288 11.34869037 20 17 C19.63079809 18.99369031 19.28674418 20.99279077 19 23 C17.35 23 15.7 23 14 23 C14.66666667 18.33333333 15.33333333 13.66666667 16 9 C14.02 13.62 12.04 18.24 10 23 C8.02 23 6.04 23 4 23 C3.67 18.05 3.34 13.1 3 8 C2.01 12.95 1.02 17.9 0 23 C-1.32 23 -2.64 23 -4 23 C-2.125 4.25 -2.125 4.25 0 0 Z " fill="#332B5C" transform="translate(103,5)"/>
<path d="M0 0 C0.33 0 0.66 0 1 0 C1.50710303 4.80842339 -0.16069349 7.67694029 -2.5 11.8125 C-2.83386719 12.40998047 -3.16773438 13.00746094 -3.51171875 13.62304688 C-4.33172633 15.08734612 -5.16459312 16.54443137 -6 18 C-1.38 17.67 3.24 17.34 8 17 C8.66 17.99 9.32 18.98 10 20 C10 19.34 10 18.68 10 18 C12.31 18 14.62 18 17 18 C17 18.66 17 19.32 17 20 C16.34 20 15.68 20 15 20 C15.495 21.485 15.495 21.485 16 23 C14.36804688 23.43699219 14.36804688 23.43699219 12.703125 23.8828125 C4.53623074 26.13700205 -2.99229901 28.61154475 -10.484375 32.66796875 C-12.94006176 33.96826251 -15.40404417 35.0148441 -18 36 C-16.74211911 31.8961871 -15.21907424 28.33857983 -13.06640625 24.62890625 C-12.49986328 23.64212891 -11.93332031 22.65535156 -11.34960938 21.63867188 C-10.75986328 20.62353516 -10.17011719 19.60839844 -9.5625 18.5625 C-4.30549355 9.51650792 -4.30549355 9.51650792 0 0 Z " fill="#2B215B" transform="translate(57,83)"/>
<path d="M0 0 C3.97915159 -0.02886984 7.95827653 -0.04675406 11.9375 -0.0625 C13.07380859 -0.07087891 14.21011719 -0.07925781 15.38085938 -0.08789062 C16.46044922 -0.09111328 17.54003906 -0.09433594 18.65234375 -0.09765625 C20.15269165 -0.10551147 20.15269165 -0.10551147 21.68334961 -0.11352539 C24 0 24 0 25 1 C24.93541607 2.9404536 24.79803668 4.87869816 24.625 6.8125 C24.53476562 7.87082031 24.44453125 8.92914063 24.3515625 10.01953125 C24.06561783 12.44370663 23.66872284 14.65947007 23 17 C21.35 17 19.7 17 18 17 C19 10 19 10 20 3 C18.68 3.33 17.36 3.66 16 4 C15.01 8.29 14.02 12.58 13 17 C11.35 17 9.7 17 8 17 C8.14204741 15.41632253 8.28880153 13.83306682 8.4375 12.25 C8.51871094 11.36828125 8.59992187 10.4865625 8.68359375 9.578125 C8.96238465 7.30649548 9.38790577 5.20148177 10 3 C8.35 3 6.7 3 5 3 C4.01 7.62 3.02 12.24 2 17 C0.35 17 -1.3 17 -3 17 C-2.36454423 13.08135606 -1.67309403 9.17481238 -0.9609375 5.26953125 C-0.78095215 4.28186768 -0.6009668 3.2942041 -0.41552734 2.27661133 C-0.27840332 1.52532959 -0.1412793 0.77404785 0 0 Z " fill="#302857" transform="translate(35,11)"/>
<path d="M0 0 C0.99 0.66 1.98 1.32 3 2 C2.43048055 7.97995423 0.39467224 11.94742379 -4.1875 15.875 C-8.16655847 17.46662339 -11.77371235 17.2136887 -16 17 C-16.99 17 -17.98 17 -19 17 C-21.33333333 17 -23.66666667 17 -26 17 C-25.67 15.68 -25.34 14.36 -25 13 C-22.36 13.33 -19.72 13.66 -17 14 C-16.9175 13.29875 -16.835 12.5975 -16.75 11.875 C-15.61189161 7.51225116 -13.30189238 4.39488469 -10.25 1.125 C-6.70999391 -0.64500305 -3.94135542 -0.31280599 0 0 Z " fill="#E1DDEE" transform="translate(120,84)"/>
<path d="M0 0 C2.4375 1.5 2.4375 1.5 4 4 C4.72367525 8.07889684 5.09198359 10.3925459 2.7421875 13.8515625 C-0.53805912 17.07078128 -3.19463746 18.38044369 -7.8125 18.5 C-11.01046981 18.36789798 -11.66373495 18.33626505 -14 16 C-14.71406499 12.24176322 -14.83772418 8.50728067 -12.94921875 5.109375 C-8.92789579 0.22210344 -6.23820143 -0.53777599 0 0 Z " fill="#413A64" transform="translate(77,10)"/>
<path d="M0 0 C1.19496094 -0.00386719 1.19496094 -0.00386719 2.4140625 -0.0078125 C4.375 0.125 4.375 0.125 5.375 1.125 C5.07804565 6.96510225 4.22716783 10.50239861 0.375 15.125 C-2.76844298 17.13463093 -5.18277375 17.34716385 -8.875 17.25 C-9.76703125 17.23195313 -10.6590625 17.21390625 -11.578125 17.1953125 C-12.25359375 17.17210938 -12.9290625 17.14890625 -13.625 17.125 C-13.67922947 15.6879191 -13.71789723 14.25024538 -13.75 12.8125 C-13.77320312 12.01199219 -13.79640625 11.21148437 -13.8203125 10.38671875 C-13.625 8.125 -13.625 8.125 -11.625 5.125 C-10.965 5.125 -10.305 5.125 -9.625 5.125 C-9.625 4.465 -9.625 3.805 -9.625 3.125 C-8.965 3.125 -8.305 3.125 -7.625 3.125 C-7.625 2.465 -7.625 1.805 -7.625 1.125 C-4.78285932 0.17761977 -2.94891609 -0.00960559 0 0 Z " fill="#CDC9E2" transform="translate(91.625,83.875)"/>
<path d="M0 0 C1.62490954 -0.02698189 3.24994633 -0.04638757 4.875 -0.0625 C5.77992187 -0.07410156 6.68484375 -0.08570312 7.6171875 -0.09765625 C10 0 10 0 12 1 C12.60635899 7.36676941 10.12028047 10.37804603 6.25 15.1640625 C3.27776712 17.58932197 1.53143454 17.4144102 -2.25 17.25 C-3.32765625 17.21390625 -4.4053125 17.1778125 -5.515625 17.140625 C-6.74539062 17.07101563 -6.74539062 17.07101563 -8 17 C-6.3341708 10.83643195 -3.12194714 5.51740344 0 0 Z " fill="#D3D1E7" transform="translate(59,84)"/>
<path d="M0 0 C0.33 0.33 0.66 0.66 1 1 C0.9140625 2.8203125 0.9140625 2.8203125 0.625 5.125 C0.52574219 5.93066406 0.42648438 6.73632812 0.32421875 7.56640625 C-0.09521689 10.71470024 -0.53211827 13.85850838 -1 17 C-3.31243792 17.02685412 -5.6249627 17.04632841 -7.9375 17.0625 C-9.22527344 17.07410156 -10.51304687 17.08570312 -11.83984375 17.09765625 C-15 17 -15 17 -16 16 C-16.25 12.5625 -16.25 12.5625 -16 9 C-12.96474514 6.97649676 -11.80573798 6.67875982 -8.3125 6.375 C-7.50425781 6.30023437 -6.69601563 6.22546875 -5.86328125 6.1484375 C-4.94095703 6.07496094 -4.94095703 6.07496094 -4 6 C-4 5.01 -4 4.02 -4 3 C-5.0828125 3.495 -5.0828125 3.495 -6.1875 4 C-9.01697427 5.00603529 -11.02895466 5.16977402 -14 5 C-10.30870542 -1.85526137 -7.05417596 -1.13777032 0 0 Z " fill="#272453" transform="translate(172,11)"/>
<path d="M0 0 C2 2 2 2 2.1953125 3.9453125 C2.13020833 5.96354167 2.06510417 7.98177083 2 10 C-1.96 10 -5.92 10 -10 10 C-10 10.99 -10 11.98 -10 13 C-6.7 12.67 -3.4 12.34 0 12 C-2 16 -2 16 -4 17 C-11.21288014 17.57245081 -11.21288014 17.57245081 -14.0625 15.5 C-15.43161465 11.8490276 -15.0821175 8.66031692 -14 5 C-10.08747064 -1.12962934 -6.91598391 -1.38319678 0 0 Z " fill="#473F6C" transform="translate(141,11)"/>
<path d="M0 0 C3.96 0.33 7.92 0.66 12 1 C10.68 2.32 9.36 3.64 8 5 C8.99 5.33 9.98 5.66 11 6 C10.85953745 8.95867918 10.71287776 11.91682264 10.5625 14.875 C10.50352539 16.13763672 10.50352539 16.13763672 10.44335938 17.42578125 C10.40146484 18.23144531 10.35957031 19.03710938 10.31640625 19.8671875 C10.26141968 20.98262939 10.26141968 20.98262939 10.20532227 22.12060547 C10 24 10 24 9 26 C7.68 26 6.36 26 5 26 C5.33 20.39 5.66 14.78 6 9 C5.34 9 4.68 9 4 9 C4 13.29 4 17.58 4 22 C2.68 22 1.36 22 0 22 C0 16.06 0 10.12 0 4 C1.32 4.33 2.64 4.66 4 5 C4 4.34 4 3.68 4 3 C2.68 3 1.36 3 0 3 C0 2.01 0 1.02 0 0 Z " fill="#A09DB1" transform="translate(96,150)"/>
<path d="M0 0 C2.91781637 2.27954404 2.97820387 3.82563093 3.4375 7.5 C3 11 3 11 1.375 13.4375 C-1.69817115 15.45932313 -3.38247881 15.52755517 -7 15 C-9.3125 13.875 -9.3125 13.875 -11 12 C-12.03492421 8.59953473 -12.1761413 6.60971987 -11.1875 3.1875 C-8.84585062 -1.12606465 -4.42600877 -0.63357999 0 0 Z " fill="#322B53" transform="translate(59,157)"/>
<path d="M0 0 C2 2 2 2 2.3125 5.8125 C2.17207937 9.67406724 1.83286811 12.16713189 -1 15 C-4.00113664 15.83548126 -6.88849653 16.23026307 -10 16 C-12 14 -12 14 -12.15234375 12.01171875 C-11.76259799 7.79537822 -11.32701593 5.4578223 -8.8125 1.9375 C-5.51943998 -0.33105246 -3.91774592 -0.60942714 0 0 Z " fill="#F9F9F5" transform="translate(24,8)"/>
<path d="M0 0 C0.33 0.66 0.66 1.32 1 2 C1.66 2 2.32 2 3 2 C3 1.34 3 0.68 3 0 C3.66 0 4.32 0 5 0 C5.33 0.66 5.66 1.32 6 2 C6.66 2 7.32 2 8 2 C7.67 3.98 7.34 5.96 7 8 C6.01 8 5.02 8 4 8 C3.67 8.66 3.34 9.32 3 10 C3 9.01 3 8.02 3 7 C1.68 7 0.36 7 -1 7 C-1.33 8.32 -1.66 9.64 -2 11 C0.31 11 2.62 11 5 11 C5.33 10.34 5.66 9.68 6 9 C6.928125 9.4640625 6.928125 9.4640625 7.875 9.9375 C12.18802294 11.4039278 16.4759996 11.66619026 21 12 C19.171875 13.55078125 19.171875 13.55078125 17 15 C14.25 14.1875 14.25 14.1875 12 13 C12 13.66 12 14.32 12 15 C5.11300343 15.11739199 -1.74807786 14.99173804 -8.625 14.625 C-9.32367188 14.59414307 -10.02234375 14.56328613 -10.7421875 14.53149414 C-15.76579357 14.23420643 -15.76579357 14.23420643 -18 12 C-17.40832031 11.95101562 -16.81664063 11.90203125 -16.20703125 11.8515625 C-9.8356128 11.35855552 -9.8356128 11.35855552 -4 9 C-2.73854232 6.63813861 -2.73854232 6.63813861 -2 4 C-1.34786461 2.65949948 -0.68620031 1.32338632 0 0 Z " fill="#231C46" transform="translate(96,90)"/>
<path d="M0 0 C2.52689194 3.21887158 4.61942974 6.59584027 6.6875 10.125 C7.31011719 11.17945312 7.93273437 12.23390625 8.57421875 13.3203125 C10 16 10 16 10 18 C9.01 18.33 8.02 18.66 7 19 C5.79117904 21.00016466 5.79117904 21.00016466 5 23 C3.02 22.34 1.04 21.68 -1 21 C-1 21.99 -1 22.98 -1 24 C-1.66 24 -2.32 24 -3 24 C-3 23.34 -3 22.68 -3 22 C-6.63 22 -10.26 22 -14 22 C-14 21.67 -14 21.34 -14 21 C-12.783125 20.773125 -11.56625 20.54625 -10.3125 20.3125 C-6.00816919 19.23070358 -3.79141831 17.53032315 -1 14 C0.49475812 11.01048377 1 9.3530811 1 6 C-1.64 5.34 -4.28 4.68 -7 4 C-7 3.67 -7 3.34 -7 3 C-6.030625 2.87625 -5.06125 2.7525 -4.0625 2.625 C-2.5465625 2.315625 -2.5465625 2.315625 -1 2 C-0.67 1.34 -0.34 0.68 0 0 Z " fill="#342F58" transform="translate(121,80)"/>
<path d="M0 0 C4.95 0 9.9 0 15 0 C14.67 1.32 14.34 2.64 14 4 C14.66 4.33 15.32 4.66 16 5 C13.69 5 11.38 5 9 5 C8.7525 5.639375 8.505 6.27875 8.25 6.9375 C7.19069821 9.53278938 6.1121724 12.11456386 5 14.6875 C4.505 15.83798828 4.505 15.83798828 4 17.01171875 C3 19 3 19 1 21 C1 15.72 1 10.44 1 5 C-1.64 5 -4.28 5 -7 5 C-7 4.67 -7 4.34 -7 4 C-6.030625 3.71125 -5.06125 3.4225 -4.0625 3.125 C-0.89335797 2.35785318 -0.89335797 2.35785318 0 0 Z " fill="#EFEDF3" transform="translate(110,0)"/>
<path d="M0 0 C1.65 0 3.3 0 5 0 C5 1.65 5 3.3 5 5 C5.66 5 6.32 5 7 5 C7 5.99 7 6.98 7 8 C6.01 8.33 5.02 8.66 4 9 C3.34 12.3 2.68 15.6 2 19 C2.66 19 3.32 19 4 19 C4 19.99 4 20.98 4 22 C1.69 22 -0.62 22 -3 22 C-3.21192221 16.80790596 -2.5912689 12.873261 -1 8 C-1.66 8 -2.32 8 -3 8 C-3 7.01 -3 6.02 -3 5 C-2.01 5 -1.02 5 0 5 C0 3.35 0 1.7 0 0 Z " fill="#362F5A" transform="translate(149,6)"/>
<path d="M0 0 C0.76183594 0.00386719 1.52367188 0.00773438 2.30859375 0.01171875 C4.82504883 0.34753685 6.45060425 0.9030086 8.5625 2.3125 C9.3125 5.4375 9.3125 5.4375 9.5625 8.3125 C7.25 9 7.25 9 4.5625 9.3125 C3 7.9375 3 7.9375 1.5625 6.3125 C0.2425 5.9825 -1.0775 5.6525 -2.4375 5.3125 C-2.4375 10.2625 -2.4375 15.2125 -2.4375 20.3125 C-1.4475 20.6425 -0.4575 20.9725 0.5625 21.3125 C-0.0975 21.6425 -0.7575 21.9725 -1.4375 22.3125 C-1.7675 22.9725 -2.0975 23.6325 -2.4375 24.3125 C-4.86794139 20.66683792 -4.70060692 17.95613257 -4.625 13.75 C-4.62435547 13.06486328 -4.62371094 12.37972656 -4.62304688 11.67382812 C-4.57817963 6.59385927 -4.57817963 6.59385927 -3.4375 4.3125 C-4.7575 3.9825 -6.0775 3.6525 -7.4375 3.3125 C-5.08278413 0.46126257 -3.67419868 -0.08054736 0 0 Z " fill="#F5F4F6" transform="translate(110.4375,151.6875)"/>
<path d="M0 0 C2 2 2 2 2.1953125 3.9453125 C2.13020833 5.96354167 2.06510417 7.98177083 2 10 C4.31 10 6.62 10 9 10 C9.66 8.02 10.32 6.04 11 4 C11.99 4 12.98 4 14 4 C14.375 6.6875 14.375 6.6875 14 10 C11.33154428 13.14740931 9.75089563 14.71551612 5.66796875 15.37890625 C3.35727706 15.43490039 1.27177685 15.4316376 -1 15 C-3.40450178 12.59549822 -3.29609139 11.91766058 -3.3125 8.625 C-3.25687267 5.48458455 -3.11914878 4.20354584 -1.5 1.4375 C-0.7575 0.7259375 -0.7575 0.7259375 0 0 Z " fill="#393066" transform="translate(66,13)"/>
<path d="M0 0 C2.31 0.33 4.62 0.66 7 1 C7 1.66 7 2.32 7 3 C8.11375 3.0825 9.2275 3.165 10.375 3.25 C14 4 14 4 15.4375 6.0625 C15.7159375 7.0215625 15.7159375 7.0215625 16 8 C13.61435923 7.42415568 11.33317216 6.77772405 9 6 C9 7.98 9 9.96 9 12 C12.465 11.505 12.465 11.505 16 11 C15.34 12.32 14.68 13.64 14 15 C11.125 15.125 11.125 15.125 8 15 C5.60236815 12.60236815 5.65719414 11.66726502 5.375 8.375 C5.30023438 7.55773437 5.22546875 6.74046875 5.1484375 5.8984375 C5.07496094 4.95871094 5.07496094 4.95871094 5 4 C4.34 4 3.68 4 3 4 C3 7.63 3 11.26 3 15 C2.01 15 1.02 15 0 15 C0 10.05 0 5.1 0 0 Z " fill="#352E57" transform="translate(108,157)"/>
<path d="M0 0 C-0.33 6.93 -0.66 13.86 -1 21 C-1.33 21 -1.66 21 -2 21 C-2.33 16.05 -2.66 11.1 -3 6 C-3.99 10.95 -4.98 15.9 -6 21 C-7.32 21 -8.64 21 -10 21 C-9.29411026 13.94110263 -8.21786614 6.98795036 -7 0 C-2.25 -1.125 -2.25 -1.125 0 0 Z " fill="#463E71" transform="translate(109,7)"/>
<path d="M0 0 C1.65 0 3.3 0 5 0 C4.52524018 2.37379908 4.0502771 4.74755461 3.57421875 7.12109375 C3.1977985 9.00831634 2.82526187 10.89631863 2.45703125 12.78515625 C2.28558594 13.66042969 2.11414063 14.53570312 1.9375 15.4375 C1.70353516 16.64212891 1.70353516 16.64212891 1.46484375 17.87109375 C1 20 1 20 0 23 C-1.32 23 -2.64 23 -4 23 C-4.23136637 17.4978184 -3.4350346 12.86146222 -2 7.5625 C-1.80921875 6.83095703 -1.6184375 6.09941406 -1.421875 5.34570312 C-0.95549597 3.56180334 -0.47881722 1.78060155 0 0 Z " fill="#3B3462" transform="translate(179,5)"/>
<path d="M0 0 C3.5 0.25 3.5 0.25 5.5 2.25 C5.75 5.75 5.75 5.75 5.5 9.25 C3.5 11.25 3.5 11.25 0 11.5 C-3.5 11.25 -3.5 11.25 -5.5 9.25 C-5.75 5.75 -5.75 5.75 -5.5 2.25 C-3.5 0.25 -3.5 0.25 0 0 Z " fill="#363055" transform="translate(88.5,160.75)"/>
<path d="M0 0 C2.55820816 3.41094421 4.32943579 6.45129095 6.1875 10.25 C6.71730469 11.32765625 7.24710938 12.4053125 7.79296875 13.515625 C8.19128906 14.33546875 8.58960937 15.1553125 9 16 C5.06764531 16 3.97035951 14.45054659 1 12 C0.01 11.67 -0.98 11.34 -2 11 C-2.66 12.32 -3.32 13.64 -4 15 C-5.32 14.67 -6.64 14.34 -8 14 C-5.36 9.38 -2.72 4.76 0 0 Z " fill="#31295C" transform="translate(90,24)"/>
<path d="M0 0 C2.47923801 -0.02685095 4.9581884 -0.04676547 7.4375 -0.0625 C8.14455078 -0.07087891 8.85160156 -0.07925781 9.58007812 -0.08789062 C11.38693559 -0.09653588 13.19387603 -0.05220011 15 0 C16 1 16 1 16.09765625 3.28515625 C16.08605469 4.20167969 16.07445313 5.11820313 16.0625 6.0625 C16.05347656 6.98160156 16.04445313 7.90070313 16.03515625 8.84765625 C16.02355469 9.55792969 16.01195313 10.26820313 16 11 C15.34 11 14.68 11 14 11 C13.67 8.36 13.34 5.72 13 3 C12.01 2.67 11.02 2.34 10 2 C10 4.97 10 7.94 10 11 C9.01 11 8.02 11 7 11 C6.67 8.36 6.34 5.72 6 3 C5.34 3 4.68 3 4 3 C3.67 5.64 3.34 8.28 3 11 C2.01 11 1.02 11 0 11 C0 7.37 0 3.74 0 0 Z " fill="#342F50" transform="translate(64,161)"/>
<path d="M0 0 C3.465 1.485 3.465 1.485 7 3 C7 6 7 6 4.91796875 8.15625 C3.56638672 9.31640625 3.56638672 9.31640625 2.1875 10.5 C-2.0203533 14.12830914 -2.0203533 14.12830914 -6 18 C-5.61330541 11.03949747 -3.36561591 6.0605925 0 0 Z " fill="#372E63" transform="translate(22,163)"/>
<path d="M0 0 C0.33 1.32 0.66 2.64 1 4 C1.99 3.01 2.98 2.02 4 1 C4 2.32 4 3.64 4 5 C3.01 5 2.02 5 1 5 C1 5.99 1 6.98 1 8 C1.66 8 2.32 8 3 8 C2.49202991 12.3177458 1.80317221 16.03302114 0 20 C-0.99 19.67 -1.98 19.34 -3 19 C-3 18.01 -3 17.02 -3 16 C-3.886875 16.33 -4.77375 16.66 -5.6875 17 C-8.70923347 17.91222143 -10.88373706 18.18330958 -14 18 C-14 17.01 -14 16.02 -14 15 C-10.04 15 -6.08 15 -2 15 C-2.144375 13.72125 -2.28875 12.4425 -2.4375 11.125 C-2.55931641 10.04605469 -2.55931641 10.04605469 -2.68359375 8.9453125 C-2.91292961 6.92595684 -2.91292961 6.92595684 -4 5 C-3.34 5 -2.68 5 -2 5 C-1.34 3.35 -0.68 1.7 0 0 Z " fill="#E0DDED" transform="translate(145,6)"/>
<path d="M0 0 C6.75 -0.125 6.75 -0.125 9 1 C9 4.3 9 7.6 9 11 C6.03 11 3.06 11 0 11 C-0.33 9.35 -0.66 7.7 -1 6 C0.32 5.34 1.64 4.68 3 4 C1.68 4 0.36 4 -1 4 C-0.67 2.68 -0.34 1.36 0 0 Z " fill="#3D3D5B" transform="translate(127,161)"/>
<path d="M0 0 C3.5625 -0.25 3.5625 -0.25 7 0 C7.33 0.33 7.66 0.66 8 1 C7.93541607 2.9404536 7.79803668 4.87869816 7.625 6.8125 C7.53476562 7.87082031 7.44453125 8.92914063 7.3515625 10.01953125 C7.06561783 12.44370663 6.66872284 14.65947007 6 17 C4.35 17 2.7 17 1 17 C1.66666667 12.33333333 2.33333333 7.66666667 3 3 C1.35 3 -0.3 3 -2 3 C-1.34 2.01 -0.68 1.02 0 0 Z " fill="#3D3567" transform="translate(52,11)"/>
<path d="M0 0 C0.66 0.66 1.32 1.32 2 2 C2.66 1.34 3.32 0.68 4 0 C4 1.98 4 3.96 4 6 C6.97 6 9.94 6 13 6 C13 6.33 13 6.66 13 7 C10.69 7.33 8.38 7.66 6 8 C6.33 8.66 6.66 9.32 7 10 C4.36 10.33 1.72 10.66 -1 11 C-1.33 10.01 -1.66 9.02 -2 8 C-1.67 7.67 -1.34 7.34 -1 7 C-3.97 6.505 -3.97 6.505 -7 6 C-7 6.66 -7 7.32 -7 8 C-9 7 -9 7 -10 4 C-6.79881197 1.86587465 -4.73461318 1.5683107 -1 1 C-0.67 0.67 -0.34 0.34 0 0 Z " fill="#342B61" transform="translate(74,95)"/>
<path d="M0 0 C2.31 0 4.62 0 7 0 C6.72816925 3.89624082 6.18905227 5.75843321 3.75 8.875 C1 11 1 11 -1.8125 11.3125 C-2.534375 11.209375 -3.25625 11.10625 -4 11 C-4.6875 9.3125 -4.6875 9.3125 -5 7 C-3.6875 4.25 -3.6875 4.25 -2 2 C-1.34 2 -0.68 2 0 2 C0 1.34 0 0.68 0 0 Z " fill="#322961" transform="translate(112,87)"/>
<path d="M0 0 C-0.27183075 3.89624082 -0.81094773 5.75843321 -3.25 8.875 C-6 11 -6 11 -8.8125 11.3125 C-9.534375 11.209375 -10.25625 11.10625 -11 11 C-11.46707789 6.98313013 -11.32150834 5.43498188 -8.875 2.125 C-5.56501812 -0.32150834 -4.01686987 -0.46707789 0 0 Z " fill="#302954" transform="translate(93,87)"/>
<path d="M0 0 C6.6 0 13.2 0 20 0 C20 1.66666667 20 3.33333333 20 5 C19.33613281 4.97679687 18.67226563 4.95359375 17.98828125 4.9296875 C11.27138984 4.76375695 11.27138984 4.76375695 5 7 C4.34 6.34 3.68 5.68 3 5 C2.34 4.67 1.68 4.34 1 4 C0.67 2.68 0.34 1.36 0 0 Z " fill="#FAFAEF" transform="translate(8,0)"/>
<path d="M0 0 C0.68835938 0.06123047 1.37671875 0.12246094 2.0859375 0.18554688 C3.76710098 0.33731858 5.44633301 0.51023618 7.125 0.6875 C7.24746094 1.48542969 7.36992188 2.28335938 7.49609375 3.10546875 C7.8477493 5.84558353 7.8477493 5.84558353 10.1875 7 C10.826875 7.226875 11.46625 7.45375 12.125 7.6875 C11.135 9.1725 11.135 9.1725 10.125 10.6875 C9.465 10.3575 8.805 10.0275 8.125 9.6875 C7.795 11.0075 7.465 12.3275 7.125 13.6875 C7.125 11.7075 7.125 9.7275 7.125 7.6875 C6.465 7.6875 5.805 7.6875 5.125 7.6875 C5.125 8.3475 5.125 9.0075 5.125 9.6875 C4.465 9.6875 3.805 9.6875 3.125 9.6875 C2.795 7.3775 2.465 5.0675 2.125 2.6875 C-1.835 2.6875 -5.795 2.6875 -9.875 2.6875 C-9.875 3.3475 -9.875 4.0075 -9.875 4.6875 C-10.535 4.6875 -11.195 4.6875 -11.875 4.6875 C-12.205 5.3475 -12.535 6.0075 -12.875 6.6875 C-13.205 5.3675 -13.535 4.0475 -13.875 2.6875 C-9.07662955 -0.21992384 -5.44754733 -0.59648532 0 0 Z " fill="#2F2352" transform="translate(93.875,82.3125)"/>
<path d="M0 0 C0 0.66 0 1.32 0 2 C1.98 2 3.96 2 6 2 C6 4.64 6 7.28 6 10 C4.35425434 10.02688151 2.70838587 10.04634123 1.0625 10.0625 C0.14597656 10.07410156 -0.77054688 10.08570313 -1.71484375 10.09765625 C-4 10 -4 10 -5 9 C-5.25 5.5625 -5.25 5.5625 -5 2 C-2 0 -2 0 0 0 Z " fill="#302A56" transform="translate(161,18)"/>
<path d="M0 0 C2.375 0.75 2.375 0.75 3.375 1.75 C3.41592937 4.08297433 3.41741723 6.41705225 3.375 8.75 C1.125 9.875 1.125 9.875 -1.625 10.75 C-3.9375 9.875 -3.9375 9.875 -5.625 8.75 C-5.98575949 3.33860759 -5.98575949 3.33860759 -4.4375 0.8125 C-2.625 -0.25 -2.625 -0.25 0 0 Z " fill="#F4F3F4" transform="translate(55.625,159.25)"/>
<path d="M0 0 C2.81158409 2.49824489 4.44837831 5.278476 6.25 8.5625 C6.79140625 9.53316406 7.3328125 10.50382812 7.890625 11.50390625 C8.25671875 12.32761719 8.6228125 13.15132812 9 14 C8.67 14.66 8.34 15.32 8 16 C4.37 14.02 0.74 12.04 -3 10 C-2.67 9.01 -2.34 8.02 -2 7 C-2.99 7 -3.98 7 -5 7 C-5 6.34 -5 5.68 -5 5 C-4.360625 4.731875 -3.72125 4.46375 -3.0625 4.1875 C-0.66868314 3.11332248 -0.66868314 3.11332248 0 0 Z " fill="#2F265D" transform="translate(134,104)"/>
<path d="M0 0 C1.65 0 3.3 0 5 0 C4.88512252 1.58409994 4.75765492 3.16728963 4.625 4.75 C4.55539063 5.63171875 4.48578125 6.5134375 4.4140625 7.421875 C4.00149945 9.99066382 3.28839043 11.75841015 2 14 C0.33333333 14 -1.33333333 14 -3 14 C-2.88512252 12.41590006 -2.75765492 10.83271037 -2.625 9.25 C-2.55539063 8.36828125 -2.48578125 7.4865625 -2.4140625 6.578125 C-2.00149945 4.00933618 -1.28839043 2.24158985 0 0 Z " fill="#E8E5F1" transform="translate(40,14)"/>
<path d="M0 0 C2.31 0 4.62 0 7 0 C6.67 2.31 6.34 4.62 6 7 C5.67 5.68 5.34 4.36 5 3 C4.01 4.485 4.01 4.485 3 6 C2.01 6.33 1.02 6.66 0 7 C-0.7136591 9.31939207 -1.3747292 11.65523449 -2 14 C-3.625 16.9375 -3.625 16.9375 -5 19 C-6.82504696 13.52485913 -4.91472827 9.58647419 -2.4375 4.625 C-1.63272577 3.07928632 -0.82275672 1.53621735 0 0 Z " fill="#363055" transform="translate(119,5)"/>
<path d="M0 0 C5.625 -0.25 5.625 -0.25 9 2 C8.5229205 7.00933477 7.14417521 10.06978099 4 14 C0.05062318 17.20219742 -3.00165008 17.29402058 -8 17 C-6 15 -6 15 -2.5625 13.6875 C1.29481104 11.86035266 2.39222114 10.87758431 4 7 C4 5.68 4 4.36 4 3 C2.68 2.34 1.36 1.68 0 1 C0 0.67 0 0.34 0 0 Z " fill="#DAD9EE" transform="translate(114,84)"/>
<path d="M0 0 C0.928125 0.103125 1.85625 0.20625 2.8125 0.3125 C2.5743484 4.44046115 2.41589108 6.65882633 -0.4375 9.75 C-3.3686251 11.41541199 -4.8821094 11.69025893 -8.1875 11.3125 C-4.91306391 0.48167293 -4.91306391 0.48167293 0 0 Z " fill="#38325D" transform="translate(64.1875,86.6875)"/>
<path d="M0 0 C2 2 2 2 2.125 5.625 C2.08375 6.73875 2.0425 7.8525 2 9 C-1.96 9 -5.92 9 -10 9 C-9.67 8.34 -9.34 7.68 -9 7 C-6.69 7 -4.38 7 -2 7 C-2.33 6.01 -2.66 5.02 -3 4 C-4.98 4.33 -6.96 4.66 -9 5 C-9.33 3.35 -9.66 1.7 -10 0 C-6.25976024 -1.24674659 -3.83399823 -0.76679965 0 0 Z " fill="#261F4E" transform="translate(141,11)"/>
<path d="M0 0 C1.32 0 2.64 0 4 0 C4.02690104 2.79173055 4.04679053 5.58320348 4.0625 8.375 C4.07087891 9.1690625 4.07925781 9.963125 4.08789062 10.78125 C4.11328125 16.7734375 4.11328125 16.7734375 3 19 C1.68 19 0.36 19 -1 19 C-0.67 12.73 -0.34 6.46 0 0 Z " fill="#8B87A6" transform="translate(102,157)"/>
<path d="M0 0 C2.97 0.495 2.97 0.495 6 1 C6 1.66 6 2.32 6 3 C6.99 2.34 7.98 1.68 9 1 C9.99 1 10.98 1 12 1 C12 1.66 12 2.32 12 3 C11.21625 3.515625 10.4325 4.03125 9.625 4.5625 C6.00569802 7.92328041 5.68107333 11.24265193 5 16 C4.34 14.68 3.68 13.36 3 12 C2.34 12.66 1.68 13.32 1 14 C1 10.7 1 7.4 1 4 C-0.65 3.67 -2.3 3.34 -4 3 C-2.68 2.67 -1.36 2.34 0 2 C0 1.34 0 0.68 0 0 Z " fill="#EAE8F1" transform="translate(58,8)"/>
<path d="M0 0 C0.99 0.33 1.98 0.66 3 1 C2.86722656 1.65226563 2.73445313 2.30453125 2.59765625 2.9765625 C1.65517178 7.6408287 0.74231297 12.29868454 0 17 C-1.65 17 -3.3 17 -5 17 C-4.18754124 5.9890458 -4.18754124 5.9890458 -2 2 C-1.34 1.67 -0.68 1.34 0 1 C0 0.67 0 0.34 0 0 Z " fill="#3E3668" transform="translate(48,11)"/>
<path d="M0 0 C0.33 0.66 0.66 1.32 1 2 C1.66 2 2.32 2 3 2 C3 1.34 3 0.68 3 0 C3.66 0 4.32 0 5 0 C5.33 0.66 5.66 1.32 6 2 C6.66 2 7.32 2 8 2 C7.67 3.98 7.34 5.96 7 8 C6.01 8 5.02 8 4 8 C3.67 8.66 3.34 9.32 3 10 C3 9.01 3 8.02 3 7 C1.68 7 0.36 7 -1 7 C-1.33 8.32 -1.66 9.64 -2 11 C-1.01 11 -0.02 11 1 11 C1 11.66 1 12.32 1 13 C-0.65 12.67 -2.3 12.34 -4 12 C-4.61528766 6.92387682 -2.61658349 4.17017994 0 0 Z " fill="#352C55" transform="translate(96,90)"/>
<path d="M0 0 C1.65 0 3.3 0 5 0 C6.33359073 6.42548263 6.33359073 6.42548263 4.875 8.9375 C2.46420662 10.30361625 0.72705554 10.22111261 -2 10 C-2.6875 8.375 -2.6875 8.375 -3 6 C-1.5625 2.75 -1.5625 2.75 0 0 Z " fill="#F8F6FB" transform="translate(70,14)"/>
<path d="M0 0 C1.50559539 1.96382007 2.89131683 3.78263366 4 6 C7.3 6 10.6 6 14 6 C12 10 12 10 10 11 C2.75862069 11.57471264 2.75862069 11.57471264 -0.0625 9.4375 C-1.36929016 6.03984559 -0.74134177 3.50452474 0 0 Z " fill="#281F52" transform="translate(127,17)"/>
<path d="M0 0 C0.33 0 0.66 0 1 0 C0.67 2.31 0.34 4.62 0 7 C0.66 7 1.32 7 2 7 C2.33 6.34 2.66 5.68 3 5 C4.32 5.66 5.64 6.32 7 7 C3.35231714 11.25563001 -1.88059742 13.04258136 -7 15 C-5.45454854 9.52067211 -2.84456788 4.88570819 0 0 Z " fill="#363055" transform="translate(46,104)"/>
<path d="M0 0 C1 1 1 1 1.0625 4.0625 C1.041875 5.031875 1.02125 6.00125 1 7 C0.67 6.01 0.34 5.02 0 4 C-0.99 4 -1.98 4 -3 4 C-3 4.99 -3 5.98 -3 7 C-3.99 6.67 -4.98 6.34 -6 6 C-5.34 6 -4.68 6 -4 6 C-4 5.01 -4 4.02 -4 3 C-5.0828125 3.495 -5.0828125 3.495 -6.1875 4 C-9.01697427 5.00603529 -11.02895466 5.16977402 -14 5 C-10.30870542 -1.85526137 -7.05417596 -1.13777032 0 0 Z " fill="#2C2844" transform="translate(172,11)"/>
<path d="M0 0 C0.33 0 0.66 0 1 0 C1.02696009 2.7708983 1.04681952 5.5415345 1.0625 8.3125 C1.07087891 9.09818359 1.07925781 9.88386719 1.08789062 10.69335938 C1.09111328 11.45068359 1.09433594 12.20800781 1.09765625 12.98828125 C1.10289307 13.68477783 1.10812988 14.38127441 1.11352539 15.09887695 C1 17 1 17 0 20 C0.99 20.33 1.98 20.66 3 21 C1.02 21 -0.96 21 -3 21 C-4.5329083 17.01443842 -3.50278067 13.39431148 -2.625 9.375 C-2.41617188 8.3540625 -2.41617188 8.3540625 -2.203125 7.3125 C-1.15529337 2.31058673 -1.15529337 2.31058673 0 0 Z " fill="#F5F4F6" transform="translate(106,11)"/>
<path d="M0 0 C1.32 0 2.64 0 4 0 C4.21192221 5.19209404 3.5912689 9.126739 2 14 C1.34 12.68 0.68 11.36 0 10 C-0.99 10.33 -1.98 10.66 -3 11 C-2.69217504 9.35328588 -2.37860766 7.70764424 -2.0625 6.0625 C-1.88847656 5.14597656 -1.71445312 4.22945312 -1.53515625 3.28515625 C-1 1 -1 1 0 0 Z " fill="#E9E6F4" transform="translate(51,14)"/>
<path d="M0 0 C0.99 0 1.98 0 3 0 C3.375 2.6875 3.375 2.6875 3 6 C0.38334126 9.00915755 -1.2032936 10.74562759 -5.1796875 11.30859375 C-7.375 11.3125 -7.375 11.3125 -11 11 C-11 10.34 -11 9.68 -11 9 C-8.36 8.67 -5.72 8.34 -3 8 C-2.690625 7.05125 -2.38125 6.1025 -2.0625 5.125 C-1 2 -1 2 0 0 Z " fill="#2E2657" transform="translate(77,17)"/>
<path d="M0 0 C0.99 0 1.98 0 3 0 C3 1.65 3 3.3 3 5 C2.34 5 1.68 5 1 5 C0.67 6.65 0.34 8.3 0 10 C-0.66 10 -1.32 10 -2 10 C-2.33 11.98 -2.66 13.96 -3 16 C-3.33 15.01 -3.66 14.02 -4 13 C-4.66 13 -5.32 13 -6 13 C-5.53851564 8.07750013 -3.19609831 3.72262318 0 0 Z " fill="#291D4C" transform="translate(74,54)"/>
<path d="M0 0 C2 1 2 1 3 3 C3.13415472 5.6723621 3.04318541 8.32250488 3 11 C3.66 11 4.32 11 5 11 C5 11.99 5 12.98 5 14 C2.69 14 0.38 14 -2 14 C-2.21192221 8.80790596 -1.5912689 4.873261 0 0 Z " fill="#2D2555" transform="translate(148,14)"/>
<path d="M0 0 C-1.63921609 2.45882414 -2.47376163 3.54125433 -5 5 C-9.66057507 5.74949225 -14.2844461 5.92980908 -19 6 C-19.33 5.34 -19.66 4.68 -20 4 C-17.79471728 3.32331051 -15.58561391 2.65906502 -13.375 2 C-12.14523438 1.62875 -10.91546875 1.2575 -9.6484375 0.875 C-6.26153174 0.06272281 -3.46145571 -0.17041013 0 0 Z " fill="#EDEAF7" transform="translate(80,105)"/>
<path d="M0 0 C2.31 0.33 4.62 0.66 7 1 C7 2.65 7 4.3 7 6 C5.68 5.34 4.36 4.68 3 4 C3 7.63 3 11.26 3 15 C2.01 15 1.02 15 0 15 C0 10.05 0 5.1 0 0 Z " fill="#676282" transform="translate(108,157)"/>
<path d="M0 0 C1.98 0 3.96 0 6 0 C6 0.99 6 1.98 6 3 C8.23647631 4.11823815 9.64891529 4.19396061 12.1328125 4.31640625 C12.93847656 4.35830078 13.74414062 4.40019531 14.57421875 4.44335938 C15.41597656 4.48267578 16.25773437 4.52199219 17.125 4.5625 C17.97449219 4.60568359 18.82398437 4.64886719 19.69921875 4.69335938 C21.79928223 4.79954236 23.89961948 4.90028497 26 5 C26 5.33 26 5.66 26 6 C4.46808511 6.19148936 4.46808511 6.19148936 -6 5 C-4.04783565 3.04783565 -2.46800047 2.15173355 0 1 C0 0.67 0 0.34 0 0 Z " fill="#504275" transform="translate(70,144)"/>
<path d="M0 0 C2.50037734 2.17424117 3.43628586 3.73045798 4 7 C3.01 7.33 2.02 7.66 1 8 C-0.20882096 10.00016466 -0.20882096 10.00016466 -1 12 C-2.98 11.34 -4.96 10.68 -7 10 C-6.67 8.68 -6.34 7.36 -6 6 C-3.03 6.495 -3.03 6.495 0 7 C-0.66 5.35 -1.32 3.7 -2 2 C-1.34 1.34 -0.68 0.68 0 0 Z " fill="#3C3568" transform="translate(127,91)"/>
<path d="M0 0 C0.66 0 1.32 0 2 0 C2 0.66 2 1.32 2 2 C3.32 2.33 4.64 2.66 6 3 C5.09507813 3.09087891 5.09507813 3.09087891 4.171875 3.18359375 C1.05310739 4.35593625 0.60585411 6.08715349 -0.75 9.0625 C-1.17796875 9.98160156 -1.6059375 10.90070313 -2.046875 11.84765625 C-2.36140625 12.55792969 -2.6759375 13.26820312 -3 14 C-1.68 14.33 -0.36 14.66 1 15 C-2.71599191 15.20086443 -3.77208445 15.1519437 -7 13 C-3.535 6.565 -3.535 6.565 0 0 Z " fill="#CECCDF" transform="translate(59,84)"/>
<path d="M0 0 C1.98 0.66 3.96 1.32 6 2 C6.33 1.34 6.66 0.68 7 0 C7.66 0.33 8.32 0.66 9 1 C10.67654729 0.72057545 12.34608154 0.39171753 14 0 C14.45375 0.969375 14.9075 1.93875 15.375 2.9375 C16.65786221 6.07079582 16.65786221 6.07079582 19 7 C18.67 7.99 18.34 8.98 18 10 C15.525 9.505 15.525 9.505 13 9 C13 7.02 13 5.04 13 3 C9.04 3 5.08 3 1 3 C0.67 2.01 0.34 1.02 0 0 Z " fill="#241851" transform="translate(88,80)"/>
<path d="M0 0 C0.66 0.66 1.32 1.32 2 2 C3.32 2 4.64 2 6 2 C5.2884375 2.928125 5.2884375 2.928125 4.5625 3.875 C2.41947162 8.16105676 2.26657436 12.26600709 2 17 C1.01 16.67 0.02 16.34 -1 16 C-1.87890625 9.84765625 -1.87890625 9.84765625 -2 8 C-1.67 7.67 -1.34 7.34 -1 7 C-0.63239269 4.67182036 -0.29758419 2.3381615 0 0 Z " fill="#E7E4F3" transform="translate(125,9)"/>
<path d="M0 0 C0 0.33 0 0.66 0 1 C-0.928125 1.268125 -1.85625 1.53625 -2.8125 1.8125 C-6.53041426 3.15921676 -6.53041426 3.15921676 -9 6 C-9.7269226 9.10839021 -9.7269226 9.10839021 -10 12 C-11.32 10.68 -12.64 9.36 -14 8 C-13.34 6.35 -12.68 4.7 -12 3 C-11.34 3 -10.68 3 -10 3 C-10 2.34 -10 1.68 -10 1 C-9.34 1 -8.68 1 -8 1 C-8 0.34 -8 -0.32 -8 -1 C-4.37673261 -2.2077558 -3.35853631 -1.54311128 0 0 Z " fill="#C4C5DA" transform="translate(92,86)"/>
<path d="M0 0 C0.99 0 1.98 0 3 0 C1.125 3.875 1.125 3.875 0 5 C0.99 5 1.98 5 3 5 C2.88590407 6.45922693 2.75834456 7.91740598 2.625 9.375 C2.55539063 10.18710937 2.48578125 10.99921875 2.4140625 11.8359375 C2 14 2 14 0 16 C-0.33 15.34 -0.66 14.68 -1 14 C-1.99 14 -2.98 14 -4 14 C-3.34 13.01 -2.68 12.02 -2 11 C-1.58073551 8.52375646 -1.58073551 8.52375646 -1.4375 5.875 C-1.09828393 1.09828393 -1.09828393 1.09828393 0 0 Z " fill="#E8E6F1" transform="translate(32,8)"/>
<path d="M0 0 C0.99 0.33 1.98 0.66 3 1 C3 3.64 3 6.28 3 9 C3.99 9 4.98 9 6 9 C6 9.66 6 10.32 6 11 C5.01 11 4.02 11 3 11 C2.67 11.66 2.34 12.32 2 13 C2 12.34 2 11.68 2 11 C1.34 11 0.68 11 0 11 C-1.62651522 7.74696956 -1.11453156 4.60774398 -1 1 C-0.67 0.67 -0.34 0.34 0 0 Z " fill="#E1DFE9" transform="translate(68,163)"/>
<path d="M0 0 C2.33199388 0.07905064 4.66832622 0.08798769 7 0 C7 0.66 7 1.32 7 2 C-1.25 1.67 -9.5 1.34 -18 1 C-18 0.67 -18 0.34 -18 0 C-4.89320388 -3.26213592 -4.89320388 -3.26213592 0 0 Z " fill="#221642" transform="translate(97,148)"/>
<path d="M0 0 C0.66 0.33 1.32 0.66 2 1 C2.35919668 2.66128463 2.68911632 4.32900023 3 6 C3.99083967 8.23408113 3.99083967 8.23408113 5 10 C4.34 10 3.68 10 3 10 C2.34 11.32 1.68 12.64 1 14 C-1.0625 11.6875 -1.0625 11.6875 -3 9 C-2.67 8.01 -2.34 7.02 -2 6 C-1.01 6 -0.02 6 1 6 C0.2236068 2.9254644 0.2236068 2.9254644 -2 1 C-1.34 0.67 -0.68 0.34 0 0 Z " fill="#ECEBEF" transform="translate(97,23)"/>
<path d="M0 0 C5.06563284 4.45161674 8.9929287 9.96717995 12 16 C11.67 16.99 11.34 17.98 11 19 C9.04783565 17.04783565 8.15173355 15.46800047 7 13 C6.01 13 5.02 13 4 13 C3.896875 11.906875 3.79375 10.81375 3.6875 9.6875 C2.99088659 5.951119 2.68320706 5.33322353 0 3 C0 2.01 0 1.02 0 0 Z " fill="#36305A" transform="translate(150,147)"/>
<path d="M0 0 C0 0.66 0 1.32 0 2 C0.66 2.33 1.32 2.66 2 3 C-2.82771781 4.55732833 -7.29464681 3.58077681 -12 2 C-12.66 1.34 -13.32 0.68 -14 0 C-12.41773035 -0.19627391 -10.83410729 -0.38165538 -9.25 -0.5625 C-8.36828125 -0.66691406 -7.4865625 -0.77132813 -6.578125 -0.87890625 C-4.11567549 -0.99456676 -2.33461936 -0.73638695 0 0 Z " fill="#EEEEEC" transform="translate(144,28)"/>
<path d="M0 0 C0.99 0.33 1.98 0.66 3 1 C2.67 4.96 2.34 8.92 2 13 C0.68 13 -0.64 13 -2 13 C-1.85769192 11.58297487 -1.71099254 10.1663904 -1.5625 8.75 C-1.48128906 7.96109375 -1.40007812 7.1721875 -1.31640625 6.359375 C-1.02365007 4.17635361 -0.57935581 2.1226818 0 0 Z " fill="#2C235A" transform="translate(101,15)"/>
<path d="M0 0 C0.99 0 1.98 0 3 0 C3.33 3.3 3.66 6.6 4 10 C3.34 9.67 2.68 9.34 2 9 C1.34 9.66 0.68 10.32 0 11 C-0.99 10.67 -1.98 10.34 -3 10 C-2.69201674 8.51988629 -2.378482 7.04092675 -2.0625 5.5625 C-1.88847656 4.73878906 -1.71445312 3.91507813 -1.53515625 3.06640625 C-1 1 -1 1 0 0 Z " fill="#F3F3EC" transform="translate(4,8)"/>
<path d="M0 0 C0.33 0.66 0.66 1.32 1 2 C1.66 2 2.32 2 3 2 C3.74926071 5.66305234 4.2380014 8.42355152 3 12 C1.35 12 -0.3 12 -2 12 C-1.33333333 8 -0.66666667 4 0 0 Z " fill="#4A436B" transform="translate(34,16)"/>
<path d="M0 0 C0 0.33 0 0.66 0 1 C-1.98 1.66 -3.96 2.32 -6 3 C-6.26932521 7.65052872 -6.26932521 7.65052872 -5 12 C-6.65 12 -8.3 12 -10 12 C-10.08090971 10.37581255 -10.13914995 8.75048255 -10.1875 7.125 C-10.22230469 6.22007812 -10.25710937 5.31515625 -10.29296875 4.3828125 C-10.19628906 3.59648437 -10.09960938 2.81015625 -10 2 C-6.3558226 -0.4294516 -4.28758728 -0.16179575 0 0 Z " fill="#CCC8DB" transform="translate(90,160)"/>
<path d="M0 0 C1.0625 1.875 1.0625 1.875 2 4 C1.67 4.66 1.34 5.32 1 6 C0.34 6 -0.32 6 -1 6 C-1 5.34 -1 4.68 -1 4 C-2.65 4.66 -4.3 5.32 -6 6 C-6 5.34 -6 4.68 -6 4 C-7.32 3.67 -8.64 3.34 -10 3 C-6.68152292 -0.06320961 -4.44849969 -0.3033068 0 0 Z " fill="#E3E3E4" transform="translate(24,8)"/>
<path d="M0 0 C0.66 0.66 1.32 1.32 2 2 C1.34 2 0.68 2 0 2 C-0.33 2.99 -0.66 3.98 -1 5 C-7.625 6 -7.625 6 -11 6 C-11.33 4.35 -11.66 2.7 -12 1 C-11.21753906 1.01160156 -10.43507813 1.02320313 -9.62890625 1.03515625 C-8.61699219 1.04417969 -7.60507813 1.05320313 -6.5625 1.0625 C-5.04849609 1.07990234 -5.04849609 1.07990234 -3.50390625 1.09765625 C-1.05978933 1.28612676 -1.05978933 1.28612676 0 0 Z " fill="#F3F1F6" transform="translate(93,170)"/>
<path d="M0 0 C3.5625 -0.25 3.5625 -0.25 7 0 C7.33 0.33 7.66 0.66 8 1 C7.91062197 2.52519276 7.75462854 4.04681929 7.5625 5.5625 C7.46066406 6.38878906 7.35882813 7.21507812 7.25390625 8.06640625 C7.17011719 8.70449219 7.08632813 9.34257812 7 10 C6.67 10 6.34 10 6 10 C6 8.35 6 6.7 6 5 C3.36 4.34 0.72 3.68 -2 3 C-1.34 2.01 -0.68 1.02 0 0 Z " fill="#211B3F" transform="translate(52,11)"/>
<path d="M0 0 C2.475 0.495 2.475 0.495 5 1 C5.16873478 2.43725871 5.33490737 3.87481838 5.5 5.3125 C5.5928125 6.11300781 5.685625 6.91351563 5.78125 7.73828125 C6 10 6 10 6 13 C4.68 12.67 3.36 12.34 2 12 C2 8.37 2 4.74 2 1 C1.34 0.67 0.68 0.34 0 0 Z " fill="#D1CDE1" transform="translate(109,160)"/>
<path d="M0 0 C2 1.5625 2 1.5625 4 4 C4.74195584 10.04164038 4.74195584 10.04164038 2.5 12.9375 C2.005 13.288125 1.51 13.63875 1 14 C-0.32 13.34 -1.64 12.68 -3 12 C-2.01 11.67 -1.02 11.34 0 11 C0.26932521 6.34947128 0.26932521 6.34947128 -1 2 C-0.67 1.34 -0.34 0.68 0 0 Z " fill="#423C63" transform="translate(58,157)"/>
<path d="M0 0 C2.31 0 4.62 0 7 0 C6.45276317 3.37462715 5.9451 5.08235 4 8 C2.35 7.67 0.7 7.34 -1 7 C-0.67 4.69 -0.34 2.38 0 0 Z " fill="#E9E9E8" transform="translate(19,15)"/>
<path d="M0 0 C1.32 0.33 2.64 0.66 4 1 C4 2.32 4 3.64 4 5 C3.33613281 4.97679687 2.67226563 4.95359375 1.98828125 4.9296875 C-4.72861016 4.76375695 -4.72861016 4.76375695 -11 7 C-11.33 6.01 -11.66 5.02 -12 4 C-11.01 4 -10.02 4 -9 4 C-8.67 3.34 -8.34 2.68 -8 2 C-5.36 2 -2.72 2 0 2 C0 1.34 0 0.68 0 0 Z " fill="#E8E5F3" transform="translate(24,0)"/>
<path d="M0 0 C0.99 0 1.98 0 3 0 C2.79375 0.5775 2.5875 1.155 2.375 1.75 C1.70744585 4.39517786 1.70744585 4.39517786 4 8 C-0.62 6.35 -5.24 4.7 -10 3 C-9.34 2.34 -8.68 1.68 -8 1 C-5.27130593 1.03287583 -2.7033382 1.56397771 0 2 C0 1.34 0 0.68 0 0 Z " fill="#E6E4EE" transform="translate(132,128)"/>
<path d="M0 0 C3.96 1.98 7.92 3.96 12 6 C11.67 6.66 11.34 7.32 11 8 C6.66956925 7.49646154 3.45523687 6.74386457 0 4 C0 2.68 0 1.36 0 0 Z " fill="#EDEBF3" transform="translate(128,112)"/>
<path d="M0 0 C0.66 0 1.32 0 2 0 C2.66 1.65 3.32 3.3 4 5 C3.02433888 6.16959987 2.044375 7.33561177 1.0625 8.5 C0.51722656 9.1496875 -0.02804688 9.799375 -0.58984375 10.46875 C-1.05519531 10.9740625 -1.52054688 11.479375 -2 12 C-2.33 12 -2.66 12 -3 12 C-2.14285714 3.42857143 -2.14285714 3.42857143 0 0 Z " fill="#38355E" transform="translate(19,169)"/>
<path d="M0 0 C0.66 0 1.32 0 2 0 C2 4.95 2 9.9 2 15 C1.01 15.33 0.02 15.66 -1 16 C-1 15.34 -1 14.68 -1 14 C-2.32 14.33 -3.64 14.66 -5 15 C-5 14.34 -5 13.68 -5 13 C-3.35 13 -1.7 13 0 13 C0 8.71 0 4.42 0 0 Z " fill="#F6F5FB" transform="translate(100,159)"/>
<path d="M0 0 C2.72426311 2.35277269 3.8141763 4.62496331 5 8 C4.34 8 3.68 8 3 8 C2.34 9.32 1.68 10.64 1 12 C1 9.66666667 1 7.33333333 1 5 C-0.65 5.33 -2.3 5.66 -4 6 C-3.67 5.01 -3.34 4.02 -3 3 C-3.66 2.67 -4.32 2.34 -5 2 C-4.360625 1.855625 -3.72125 1.71125 -3.0625 1.5625 C-1.02454854 1.18992819 -1.02454854 1.18992819 0 0 Z " fill="#392B6B" transform="translate(104,50)"/>
<path d="M0 0 C0.33 0 0.66 0 1 0 C0.52013969 5.56890517 -0.29915181 10.67067568 -2 16 C-2.66 15.34 -3.32 14.68 -4 14 C-4.99 14.495 -4.99 14.495 -6 15 C-4.64475824 9.57903298 -2.63365987 4.9221313 0 0 Z " fill="#D4CFE6" transform="translate(119,12)"/>
<path d="M0 0 C1.3609623 2.7219246 0.70366248 4.1831957 0.0625 7.125 C-0.13214844 8.03507812 -0.32679688 8.94515625 -0.52734375 9.8828125 C-0.68332031 10.58148438 -0.83929688 11.28015625 -1 12 C-2.33333333 12 -3.66666667 12 -5 12 C-5.25 5.375 -5.25 5.375 -3 2 C-2.01 1.34 -1.02 0.68 0 0 Z " fill="#D8D5E4" transform="translate(176,16)"/>
<path d="M0 0 C-0.33 1.98 -0.66 3.96 -1 6 C-1.99 5.67 -2.98 5.34 -4 5 C-4 4.01 -4 3.02 -4 2 C-4.886875 2.33 -5.77375 2.66 -6.6875 3 C-9.70923347 3.91222143 -11.88373706 4.18330958 -15 4 C-15 3.01 -15 2.02 -15 1 C-12.8750734 0.83240016 -10.75005624 0.66594799 -8.625 0.5 C-7.44164062 0.4071875 -6.25828125 0.314375 -5.0390625 0.21875 C-3.36213157 0.09804546 -1.68126944 0 0 0 Z " fill="#F4F1FA" transform="translate(146,20)"/>
<path d="M0 0 C1.65 0 3.3 0 5 0 C5 3.19610552 4.45328458 4.41717626 3 7.1875 C2.62875 7.90292969 2.2575 8.61835937 1.875 9.35546875 C1.441875 10.16951172 1.441875 10.16951172 1 11 C-1.30903272 7.01647791 -0.86516528 4.49885947 0 0 Z " fill="#F1F0F7" transform="translate(44,97)"/>
<path d="M0 0 C0.66 0.33 1.32 0.66 2 1 C1.38461538 6.53846154 1.38461538 6.53846154 -0.5625 8.875 C-1.2740625 9.431875 -1.2740625 9.431875 -2 10 C-3.125 7.75 -3.125 7.75 -4 5 C-3.25 2.75 -3.25 2.75 -2 1 C-1.34 0.67 -0.68 0.34 0 0 Z " fill="#F5F5F0" transform="translate(119,63)"/>
<path d="M0 0 C1.485 0.99 1.485 0.99 3 2 C2.34 2 1.68 2 1 2 C1 2.66 1 3.32 1 4 C1.66 4 2.32 4 3 4 C3.103125 4.78375 3.20625 5.5675 3.3125 6.375 C3.77595022 9.33045181 3.77595022 9.33045181 7 11 C4.125 11.125 4.125 11.125 1 11 C0.34 10.34 -0.32 9.68 -1 9 C-0.9765625 6.8359375 -0.9765625 6.8359375 -0.625 4.375 C-0.51414062 3.55773437 -0.40328125 2.74046875 -0.2890625 1.8984375 C-0.19367187 1.27195312 -0.09828125 0.64546875 0 0 Z " fill="#DBD9E7" transform="translate(13,13)"/>
<path d="M0 0 C0.33 0.66 0.66 1.32 1 2 C-1 4 -1 4 -4 4.0625 C-4.99 4.041875 -5.98 4.02125 -7 4 C-7.99 4.495 -7.99 4.495 -9 5 C-9.33 3.35 -9.66 1.7 -10 0 C-6.26840331 -1.24386556 -3.81984796 -0.77811718 0 0 Z " fill="#3E395B" transform="translate(141,11)"/>
<path d="M0 0 C2.31 0 4.62 0 7 0 C6.67 2.31 6.34 4.62 6 7 C5.67 5.68 5.34 4.36 5 3 C4.01 4.485 4.01 4.485 3 6 C2.34 5.34 1.68 4.68 1 4 C0.01 4.66 -0.98 5.32 -2 6 C-1.34 4.02 -0.68 2.04 0 0 Z " fill="#261F47" transform="translate(119,5)"/>
<path d="M0 0 C1.98 0.66 3.96 1.32 6 2 C6.33 3.98 6.66 5.96 7 8 C5.35 8.33 3.7 8.66 2 9 C2.33 7.35 2.66 5.7 3 4 C1.68 4 0.36 4 -1 4 C-0.67 2.68 -0.34 1.36 0 0 Z " fill="#68668D" transform="translate(127,161)"/>
<path d="M0 0 C0.66 0 1.32 0 2 0 C2.33 0.66 2.66 1.32 3 2 C3.66 2 4.32 2 5 2 C4.67 3.98 4.34 5.96 4 8 C3.01 8 2.02 8 1 8 C0.67 8.66 0.34 9.32 0 10 C0 8.68 0 7.36 0 6 C-0.66 6 -1.32 6 -2 6 C-1.49396008 3.83125748 -1.00016187 2.00032373 0 0 Z " fill="#2A1A5D" transform="translate(99,90)"/>
<path d="M0 0 C0.66 0 1.32 0 2 0 C2 4.95 2 9.9 2 15 C0.68 15 -0.64 15 -2 15 C-2 14.34 -2 13.68 -2 13 C-1.34 13 -0.68 13 0 13 C0 8.71 0 4.42 0 0 Z " fill="#27204D" transform="translate(103,161)"/>
<path d="M0 0 C2 2 2 2 3 5 C4.65 5.33 6.3 5.66 8 6 C8 6.66 8 7.32 8 8 C5.03 8 2.06 8 -1 8 C-1.04241723 5.66705225 -1.04092937 3.33297433 -1 1 C-0.67 0.67 -0.34 0.34 0 0 Z " fill="#EAE5F7" transform="translate(79,93)"/>
<path d="M0 0 C0.33 0 0.66 0 1 0 C1 3.63 1 7.26 1 11 C1.99 11.33 2.98 11.66 4 12 C0.625 12.125 0.625 12.125 -3 12 C-3.66 11.34 -4.32 10.68 -5 10 C-4.54625 9.649375 -4.0925 9.29875 -3.625 8.9375 C-1.35338666 6.22903794 -0.83201146 3.39204672 0 0 Z " fill="#E4E1F4" transform="translate(63,161)"/>
<path d="M0 0 C1.670625 0.061875 1.670625 0.061875 3.375 0.125 C3.705 1.445 4.035 2.765 4.375 4.125 C1.735 3.795 -0.905 3.465 -3.625 3.125 C-3.625 4.445 -3.625 5.765 -3.625 7.125 C-4.285 7.125 -4.945 7.125 -5.625 7.125 C-5.75 4.75 -5.75 4.75 -5.625 2.125 C-3.625 0.125 -3.625 0.125 0 0 Z " fill="#2D274C" transform="translate(88.625,160.875)"/>
<path d="M0 0 C2 1 2 1 3 3 C0.36 3.33 -2.28 3.66 -5 4 C-5.33 5.65 -5.66 7.3 -6 9 C-7.65 7.68 -9.3 6.36 -11 5 C-9.21289414 4.13633178 -7.4201535 3.28431406 -5.625 2.4375 C-4.62726562 1.96183594 -3.62953125 1.48617187 -2.6015625 0.99609375 C-1.74304687 0.66738281 -0.88453125 0.33867187 0 0 Z " fill="#CCC6E1" transform="translate(54,154)"/>
<path d="M0 0 C0.33 0 0.66 0 1 0 C1.50710303 4.80842339 -0.16069349 7.67694029 -2.5 11.8125 C-3.00080078 12.7087207 -3.00080078 12.7087207 -3.51171875 13.62304688 C-4.33172633 15.08734612 -5.16459312 16.54443137 -6 18 C-6.66 17.34 -7.32 16.68 -8 16 C-5.36 10.72 -2.72 5.44 0 0 Z " fill="#4B4A58" transform="translate(57,83)"/>
<path d="M0 0 C1 3 1 3 0.00390625 5.48046875 C-0.47175781 6.37378906 -0.94742188 7.26710938 -1.4375 8.1875 C-1.91058594 9.08855469 -2.38367187 9.98960938 -2.87109375 10.91796875 C-3.24363281 11.60503906 -3.61617187 12.29210937 -4 13 C-5.0625 11.125 -5.0625 11.125 -6 9 C-5.67 8.34 -5.34 7.68 -5 7 C-4.34 7 -3.68 7 -3 7 C-3 5.02 -3 3.04 -3 1 C-2.01 0.67 -1.02 0.34 0 0 Z " fill="#EEEDF0" transform="translate(55,84)"/>
<path d="M0 0 C0.33 0 0.66 0 1 0 C1.66 3.3 2.32 6.6 3 10 C2.34 10 1.68 10 1 10 C0.67 10.99 0.34 11.98 0 13 C-1.625 10.75 -1.625 10.75 -3 8 C-2.25 5.9375 -2.25 5.9375 -1 4 C-0.63215869 2.6757713 -0.28797019 1.34386088 0 0 Z " fill="#EFEFF0" transform="translate(125,75)"/>
<path d="M0 0 C1.32 0.33 2.64 0.66 4 1 C4 3.64 4 6.28 4 9 C2.66666667 9 1.33333333 9 0 9 C0 6.03 0 3.06 0 0 Z " fill="#D3D1DC" transform="translate(74,163)"/>
<path d="M0 0 C2.97 0.495 2.97 0.495 6 1 C4.9802693 4.77300358 4.34127338 5.80206144 0.875 7.8125 C-0.07375 8.204375 -1.0225 8.59625 -2 9 C-2 8.01 -2 7.02 -2 6 C-1.34 6 -0.68 6 0 6 C0 4.02 0 2.04 0 0 Z " fill="#EFEEF0" transform="translate(48,130)"/>
<path d="M0 0 C0 0.33 0 0.66 0 1 C-3.63 1.33 -7.26 1.66 -11 2 C-11 2.66 -11 3.32 -11 4 C-11.66 4 -12.32 4 -13 4 C-13.33 4.66 -13.66 5.32 -14 6 C-14.33 4.68 -14.66 3.36 -15 2 C-9.67993436 -1.41029848 -5.94457613 -1.09644404 0 0 Z " fill="#423E6B" transform="translate(95,83)"/>
<path d="M0 0 C0.99 0.99 1.98 1.98 3 3 C3 3.66 3 4.32 3 5 C2.34 5 1.68 5 1 5 C0.67 6.65 0.34 8.3 0 10 C-3 10 -3 10 -5 9 C-3.35 6.03 -1.7 3.06 0 0 Z " fill="#3C3367" transform="translate(87,29)"/>
<path d="M0 0 C0.66 1.32 1.32 2.64 2 4 C-3.32006564 7.41029848 -7.05542387 7.09644404 -13 6 C-13 5.67 -13 5.34 -13 5 C-11.96939453 4.83564453 -11.96939453 4.83564453 -10.91796875 4.66796875 C-10.01691406 4.50941406 -9.11585937 4.35085937 -8.1875 4.1875 C-6.84751953 3.96126953 -6.84751953 3.96126953 -5.48046875 3.73046875 C-2.81678744 2.94604607 -1.74309678 2.11372201 0 0 Z " fill="#D9D6E9" transform="translate(27,23)"/>
<path d="M0 0 C0 0.66 0 1.32 0 2 C-2.31 2.33 -4.62 2.66 -7 3 C-7.33 4.32 -7.66 5.64 -8 7 C-8.66 7 -9.32 7 -10 7 C-9.625 4.0625 -9.625 4.0625 -9 1 C-6.04335481 -0.4783226 -3.25770263 -0.06032783 0 0 Z " fill="#272344" transform="translate(58,157)"/>
<path d="M0 0 C1.60463449 0.31008884 3.20869231 0.62316287 4.8125 0.9375 C5.70582031 1.11152344 6.59914063 1.28554687 7.51953125 1.46484375 C10 2 10 2 13 3 C13 3.66 13 4.32 13 5 C10.36 5 7.72 5 5 5 C4.67 4.01 4.34 3.02 4 2 C2.68 2 1.36 2 0 2 C0 1.34 0 0.68 0 0 Z " fill="#221B48" transform="translate(112,128)"/>
<path d="M0 0 C4.62 0.66 9.24 1.32 14 2 C12.68 2.99 11.36 3.98 10 5 C7.25 4.1875 7.25 4.1875 5 3 C5 3.66 5 4.32 5 5 C3.35 5 1.7 5 0 5 C0.66 4.34 1.32 3.68 2 3 C1.34 2.67 0.68 2.34 0 2 C0 1.34 0 0.68 0 0 Z " fill="#221A45" transform="translate(103,100)"/>
<path d="M0 0 C2.33294775 -0.04241723 4.66702567 -0.04092937 7 0 C8 1 8 1 8.0625 3.5625 C8.041875 4.366875 8.02125 5.17125 8 6 C7.01 6.33 6.02 6.66 5 7 C4.54625 6.21625 4.0925 5.4325 3.625 4.625 C2.11571258 1.96301969 2.11571258 1.96301969 0 0 Z " fill="#E8EBEF" transform="translate(89,84)"/>
<path d="M0 0 C7.75 -0.125 7.75 -0.125 10 1 C10 2.32 10 3.64 10 5 C9.01 5 8.02 5 7 5 C7 4.34 7 3.68 7 3 C4.69 2.67 2.38 2.34 0 2 C0 1.34 0 0.68 0 0 Z " fill="#EFEAF9" transform="translate(61,84)"/>
<path d="M0 0 C0.33 0 0.66 0 1 0 C1.33 3.3 1.66 6.6 2 10 C0.35 8.68 -1.3 7.36 -3 6 C-2.42655063 3.13275314 -2.1385485 2.1385485 0 0 Z " fill="#393357" transform="translate(165,173)"/>
<path d="M0 0 C1.67542976 0.28604898 3.34385343 0.61781233 5 1 C5 4.3 5 7.6 5 11 C4.34 11 3.68 11 3 11 C2.83723958 8.98177083 2.67447917 6.96354167 2.51171875 4.9453125 C2.12606964 2.60480784 2.12606964 2.60480784 -1 1 C-0.67 0.67 -0.34 0.34 0 0 Z " fill="#201A40" transform="translate(75,161)"/>
<path d="M0 0 C0.33 2.64 0.66 5.28 1 8 C-0.65 8 -2.3 8 -4 8 C-3.74438677 5.6568787 -3.40729228 3.32156597 -3 1 C-1 0 -1 0 0 0 Z " fill="#3B3366" transform="translate(121,20)"/>
<path d="M0 0 C0.66 0 1.32 0 2 0 C2.33 1.98 2.66 3.96 3 6 C1.68 6.99 0.36 7.98 -1 9 C-2.25541557 5.23375329 -1.37061958 3.62811066 0 0 Z " fill="#251C50" transform="translate(162,168)"/>
<path d="M0 0 C2.0625 0.4375 2.0625 0.4375 4 1 C4 2.65 4 4.3 4 6 C2.35 6 0.7 6 -1 6 C-1.042721 4.33388095 -1.04063832 2.66617115 -1 1 C-0.67 0.67 -0.34 0.34 0 0 Z " fill="#DAD6EB" transform="translate(87,163)"/>
<path d="M0 0 C0.33 0.99 0.66 1.98 1 3 C4.465 2.505 4.465 2.505 8 2 C7.67 2.99 7.34 3.98 7 5 C3.7 5 0.4 5 -3 5 C-2.67 4.01 -2.34 3.02 -2 2 C-1.34 2 -0.68 2 0 2 C0 1.34 0 0.68 0 0 Z " fill="#E6E6F8" transform="translate(54,96)"/>
<path d="M0 0 C5.625 -0.25 5.625 -0.25 9 2 C8.67 3.65 8.34 5.3 8 7 C7.34 7 6.68 7 6 7 C6 5.68 6 4.36 6 3 C4.02 2.34 2.04 1.68 0 1 C0 0.67 0 0.34 0 0 Z " fill="#EEEAF9" transform="translate(114,84)"/>
<path d="M0 0 C1.32 0 2.64 0 4 0 C4 2.31 4 4.62 4 7 C2.68 7 1.36 7 0 7 C0 4.69 0 2.38 0 0 Z " fill="#352F4F" transform="translate(175,21)"/>
<path d="M0 0 C0.66 0.33 1.32 0.66 2 1 C2 1.66 2 2.32 2 3 C2.99 3.33 3.98 3.66 5 4 C1.3558226 6.4294516 -0.71241272 6.16179575 -5 6 C-3.35 4.02 -1.7 2.04 0 0 Z " fill="#382F66" transform="translate(101,99)"/>
<path d="M0 0 C3.625 0.375 3.625 0.375 7 1 C6.67 1.99 6.34 2.98 6 4 C4.35 4 2.7 4 1 4 C1 4.66 1 5.32 1 6 C-1 5 -1 5 -2 2 C-1.34 1.34 -0.68 0.68 0 0 Z " fill="#7A729C" transform="translate(66,97)"/>
<path d="M0 0 C0.33 0.66 0.66 1.32 1 2 C3.35599235 2.46751788 3.35599235 2.46751788 6.0625 2.625 C7.44115234 2.73714844 7.44115234 2.73714844 8.84765625 2.8515625 C9.55792969 2.90054688 10.26820312 2.94953125 11 3 C11 4.65 11 6.3 11 8 C10.34 8 9.68 8 9 8 C8.67 8.66 8.34 9.32 8 10 C8 8.35 8 6.7 8 5 C5.36 4.34 2.72 3.68 0 3 C0 2.01 0 1.02 0 0 Z " fill="#291C4F" transform="translate(64,80)"/>
<path d="M0 0 C0.33 0 0.66 0 1 0 C1 2.64 1 5.28 1 8 C1.66 8 2.32 8 3 8 C3 8.66 3 9.32 3 10 C2.01 10 1.02 10 0 10 C-0.103125 9.360625 -0.20625 8.72125 -0.3125 8.0625 C-0.539375 7.381875 -0.76625 6.70125 -1 6 C-1.99 5.67 -2.98 5.34 -4 5 C-2.69254251 3.31295807 -1.35827971 1.64639965 0 0 Z " fill="#F7F8F4" transform="translate(31,20)"/>
<path d="M0 0 C-0.875 3.875 -0.875 3.875 -2 5 C-3.66617115 5.04063832 -5.33388095 5.042721 -7 5 C-6.6875 3.0625 -6.6875 3.0625 -6 1 C-3 0 -3 0 0 0 Z " fill="#CCCFE4" transform="translate(167,20)"/>
<path d="M0 0 C2.625 -0.1875 2.625 -0.1875 5 0 C4.360625 0.165 3.72125 0.33 3.0625 0.5 C0.83880759 1.781786 0.83880759 1.781786 0.51171875 3.9140625 C0.2724022 5.93575155 0.13106972 7.96841939 0 10 C-0.99 9.67 -1.98 9.34 -3 9 C-2.5020163 5.26512223 -2.12508244 3.18762365 0 0 Z " fill="#DCD8EE" transform="translate(70,14)"/>
<path d="M0 0 C0.66 0 1.32 0 2 0 C2 2.97 2 5.94 2 9 C1.01 9 0.02 9 -1 9 C-1.09765625 2.84765625 -1.09765625 2.84765625 -1 1 C-0.67 0.67 -0.34 0.34 0 0 Z " fill="#39325E" transform="translate(72,163)"/>
<path d="M0 0 C1.98 0 3.96 0 6 0 C6 1.65 6 3.3 6 5 C4.68 4.34 3.36 3.68 2 3 C2 2.34 2 1.68 2 1 C1.34 0.67 0.68 0.34 0 0 Z M-1 1 C-0.34 1.33 0.32 1.66 1 2 C1 2.66 1 3.32 1 4 C-0.32 3.67 -1.64 3.34 -3 3 C-2.34 2.34 -1.68 1.68 -1 1 Z " fill="#FBFBFD" transform="translate(106,152)"/>
<path d="M0 0 C0 0.66 0 1.32 0 2 C-3.3 2.66 -6.6 3.32 -10 4 C-10.33 3.34 -10.66 2.68 -11 2 C-7.17679443 0.57741188 -4.08718695 -0.24042276 0 0 Z " fill="#E7E3EE" transform="translate(71,107)"/>
<path d="M0 0 C0.33 0.66 0.66 1.32 1 2 C1.99 1.67 2.98 1.34 4 1 C3.67 2.65 3.34 4.3 3 6 C1.68 6.33 0.36 6.66 -1 7 C-1.04254356 5.00045254 -1.04080783 2.99958364 -1 1 C-0.67 0.67 -0.34 0.34 0 0 Z " fill="#251A5A" transform="translate(130,102)"/>
<path d="M0 0 C0.886875 0.309375 1.77375 0.61875 2.6875 0.9375 C5.46709155 1.8290671 8.13136375 2.49377007 11 3 C11 3.66 11 4.32 11 5 C9.35 5.33 7.7 5.66 6 6 C6.66 5.67 7.32 5.34 8 5 C7.01 5 6.02 5 5 5 C4.01 4.67 3.02 4.34 2 4 C2 3.34 2 2.68 2 2 C1.34 2 0.68 2 0 2 C0 1.34 0 0.68 0 0 Z " fill="#231A52" transform="translate(49,100)"/>
<path d="M0 0 C6.15234375 0.5859375 6.15234375 0.5859375 8 1 C8.33 1.66 8.66 2.32 9 3 C5.52674819 4.1577506 2.63932552 4.06866652 -1 4 C-0.67 2.68 -0.34 1.36 0 0 Z " fill="#867EAB" transform="translate(95,97)"/>
<path d="M0 0 C0.66 0.66 1.32 1.32 2 2 C2.66 1.67 3.32 1.34 4 1 C4.33 1.66 4.66 2.32 5 3 C7.01669827 4.13350534 7.01669827 4.13350534 9 5 C6.36 5.66 3.72 6.32 1 7 C0.67 4.69 0.34 2.38 0 0 Z " fill="#C6C2D3" transform="translate(103,94)"/>
<path d="M0 0 C1.4540625 0.0309375 1.4540625 0.0309375 2.9375 0.0625 C2.6075 2.0425 2.2775 4.0225 1.9375 6.0625 C0.9475 6.0625 -0.0425 6.0625 -1.0625 6.0625 C-1.3925 5.0725 -1.7225 4.0825 -2.0625 3.0625 C-2.7225 2.4025 -3.3825 1.7425 -4.0625 1.0625 C-3.0625 0.0625 -3.0625 0.0625 0 0 Z " fill="#302F61" transform="translate(90.0625,86.9375)"/>
<path d="M0 0 C0.33 0 0.66 0 1 0 C1 3.3 1 6.6 1 10 C0.34 10 -0.32 10 -1 10 C-1.33 11.65 -1.66 13.3 -2 15 C-3.31534494 11.34142468 -2.65468309 8.91973519 -1.5625 5.25 C-1.27503906 4.26515625 -0.98757812 3.2803125 -0.69140625 2.265625 C-0.46324219 1.51796875 -0.23507813 0.7703125 0 0 Z " fill="#BAB3DF" transform="translate(106,11)"/>
<path d="M0 0 C1.32 0 2.64 0 4 0 C4 0.99 4 1.98 4 3 C-3.42857143 4.28571429 -3.42857143 4.28571429 -7 3 C-6.67 2.34 -6.34 1.68 -6 1 C-4.7934375 1.0309375 -4.7934375 1.0309375 -3.5625 1.0625 C-1.06645115 1.29633621 -1.06645115 1.29633621 0 0 Z " fill="#C7C6E5" transform="translate(164,14)"/>
<path d="M0 0 C1.13643966 3.40931897 0.86747764 4.00335456 -0.4375 7.1875 C-0.72496094 7.90292969 -1.01242188 8.61835938 -1.30859375 9.35546875 C-1.53675781 9.89816406 -1.76492187 10.44085938 -2 11 C-3.98 9.68 -5.96 8.36 -8 7 C-6.0625 6.4375 -6.0625 6.4375 -4 6 C-3.67 6.33 -3.34 6.66 -3 7 C-2.01 4.69 -1.02 2.38 0 0 Z " fill="#39325F" transform="translate(162,165)"/>
<path d="M0 0 C0 2.33333333 0 4.66666667 0 7 C-1.32 7.33 -2.64 7.66 -4 8 C-4.33 6.35 -4.66 4.7 -5 3 C-3.35 2.01 -1.7 1.02 0 0 Z " fill="#ECEBF1" transform="translate(41,160)"/>
<path d="M0 0 C0.99 0 1.98 0 3 0 C2.67 0.99 2.34 1.98 2 3 C4.31 3.66 6.62 4.32 9 5 C7.68 5.99 6.36 6.98 5 8 C5 7.34 5 6.68 5 6 C3.02 5.34 1.04 4.68 -1 4 C-0.67 2.68 -0.34 1.36 0 0 Z " fill="#372B67" transform="translate(26,159)"/>
<path d="M0 0 C2.16874252 0.50603992 3.99967627 0.99983813 6 2 C6 2.66 6 3.32 6 4 C4.68 4 3.36 4 2 4 C2.33 4.99 2.66 5.98 3 7 C1.35 7 -0.3 7 -2 7 C-1.34 6.01 -0.68 5.02 0 4 C0 2.68 0 1.36 0 0 Z " fill="#E3E0EE" transform="translate(119,154)"/>
<path d="M0 0 C0.80824219 0.19464844 1.61648437 0.38929687 2.44921875 0.58984375 C3.06410156 0.74582031 3.67898437 0.90179688 4.3125 1.0625 C2.3125 3.0625 2.3125 3.0625 0.3671875 3.2578125 C-1.65104167 3.19270833 -3.66927083 3.12760417 -5.6875 3.0625 C-5.6875 2.4025 -5.6875 1.7425 -5.6875 1.0625 C-6.3475 0.7325 -7.0075 0.4025 -7.6875 0.0625 C-4.39053895 -1.03648702 -3.28255097 -0.80874444 0 0 Z " fill="#F9FAEE" transform="translate(101.6875,106.9375)"/>
<path d="M0 0 C2.475 0.99 2.475 0.99 5 2 C5.33 1.34 5.66 0.68 6 0 C7.5 1.375 7.5 1.375 9 3 C9 3.66 9 4.32 9 5 C5.7 4.34 2.4 3.68 -1 3 C-0.67 2.01 -0.34 1.02 0 0 Z " fill="#392E62" transform="translate(108,103)"/>
<path d="M0 0 C0.99 0.33 1.98 0.66 3 1 C2.875 2.8125 2.875 2.8125 2 5 C-1.0625 6.75 -1.0625 6.75 -4 8 C-2.87548273 5.0280615 -1.77706209 2.66559313 0 0 Z " fill="#3C305C" transform="translate(67,66)"/>
<path d="M0 0 C1.9375 0.375 1.9375 0.375 4 1 C4.33 1.66 4.66 2.32 5 3 C4.67 3.99 4.34 4.98 4 6 C2.68 6 1.36 6 0 6 C0 4.02 0 2.04 0 0 Z " fill="#ECE9F3" transform="translate(117,163)"/>
<path d="M0 0 C1.010625 0.0825 2.02125 0.165 3.0625 0.25 C3.7225 1.24 4.3825 2.23 5.0625 3.25 C2.7525 3.91 0.4425 4.57 -1.9375 5.25 C-2.5975 3.93 -3.2575 2.61 -3.9375 1.25 C-2.9375 0.25 -2.9375 0.25 0 0 Z " fill="#F9FAF2" transform="translate(82.9375,119.75)"/>
<path d="M0 0 C1.32 0 2.64 0 4 0 C5.0625 1.875 5.0625 1.875 6 4 C5.67 4.66 5.34 5.32 5 6 C3.02 5.34 1.04 4.68 -1 4 C-0.67 2.68 -0.34 1.36 0 0 Z " fill="#8D8AB2" transform="translate(121,97)"/>
<path d="M0 0 C3.465 1.485 3.465 1.485 7 3 C6.01 4.485 6.01 4.485 5 6 C4.34 5.67 3.68 5.34 3 5 C2.67 6.32 2.34 7.64 2 9 C2 7.02 2 5.04 2 3 C1.34 3 0.68 3 0 3 C0 2.01 0 1.02 0 0 Z " fill="#372C65" transform="translate(99,87)"/>
<path d="M0 0 C0.33 0 0.66 0 1 0 C1.33 2.31 1.66 4.62 2 7 C0.35 7.66 -1.3 8.32 -3 9 C-2.5020163 5.26512223 -2.12508244 3.18762365 0 0 Z " fill="#F3F0F8" transform="translate(61,19)"/>
<path d="M0 0 C1.65 0.33 3.3 0.66 5 1 C5 1.99 5 2.98 5 4 C2.69 4 0.38 4 -2 4 C-1.34 2.68 -0.68 1.36 0 0 Z " fill="#C2BBE0" transform="translate(134,14)"/>
<path d="M0 0 C1.65 0.33 3.3 0.66 5 1 C4.01 1.495 4.01 1.495 3 2 C2.855625 2.66 2.71125 3.32 2.5625 4 C2.376875 4.66 2.19125 5.32 2 6 C1.01 6.33 0.02 6.66 -1 7 C-1.66 5.35 -2.32 3.7 -3 2 C-2.34 2 -1.68 2 -1 2 C-0.34 2.66 0.32 3.32 1 4 C0.67 2.68 0.34 1.36 0 0 Z " fill="#251C56" transform="translate(23,166)"/>
<path d="M0 0 C2.1640625 0.2421875 2.1640625 0.2421875 4.625 0.875 C5.44226563 1.07867187 6.25953125 1.28234375 7.1015625 1.4921875 C8.04128906 1.74355469 8.04128906 1.74355469 9 2 C8.67 2.99 8.34 3.98 8 5 C4.7 4.01 1.4 3.02 -2 2 C-1.34 1.34 -0.68 0.68 0 0 Z " fill="#332855" transform="translate(125,154)"/>
<path d="M0 0 C0.66 0 1.32 0 2 0 C2.33 0.99 2.66 1.98 3 3 C3.66 3.33 4.32 3.66 5 4 C4.67 4.66 4.34 5.32 4 6 C1 6 1 6 -1.1875 4 C-1.785625 3.34 -2.38375 2.68 -3 2 C-2.01 2 -1.02 2 0 2 C0 1.34 0 0.68 0 0 Z " fill="#ECE9F3" transform="translate(143,136)"/>
<path d="M0 0 C2.31 0 4.62 0 7 0 C7 0.66 7 1.32 7 2 C6.34 2 5.68 2 5 2 C5.33 2.99 5.66 3.98 6 5 C4.35 4.67 2.7 4.34 1 4 C0.67 2.68 0.34 1.36 0 0 Z " fill="#221A4E" transform="translate(67,101)"/>
<path d="M0 0 C0.99 0 1.98 0 3 0 C3 0.99 3 1.98 3 3 C3.66 3 4.32 3 5 3 C5 2.01 5 1.02 5 0 C5.99 0 6.98 0 8 0 C8 0.99 8 1.98 8 3 C5.69 3.33 3.38 3.66 1 4 C0.67 2.68 0.34 1.36 0 0 Z " fill="#2E284C" transform="translate(107,94)"/>
<path d="M0 0 C1.89213369 2.38573379 3.02391783 4.07175348 4 7 C3.34 7.66 2.68 8.32 2 9 C1.67 8.01 1.34 7.02 1 6 C-0.87387216 5.19787372 -0.87387216 5.19787372 -3.0625 4.8125 C-3.79597656 4.65394531 -4.52945313 4.49539062 -5.28515625 4.33203125 C-5.85105469 4.22246094 -6.41695313 4.11289063 -7 4 C-7 3.67 -7 3.34 -7 3 C-5.5459375 2.814375 -5.5459375 2.814375 -4.0625 2.625 C-2.5465625 2.315625 -2.5465625 2.315625 -1 2 C-0.67 1.34 -0.34 0.68 0 0 Z " fill="#5E5A72" transform="translate(121,80)"/>
<path d="M0 0 C1.98 0.66 3.96 1.32 6 2 C6 2.33 6 2.66 6 3 C4.02 3 2.04 3 0 3 C0 3.66 0 4.32 0 5 C-1.65 5 -3.3 5 -5 5 C-3.35 3.35 -1.7 1.7 0 0 Z " fill="#BFBDD5" transform="translate(112,84)"/>
<path d="M0 0 C0.66 0 1.32 0 2 0 C2 0.66 2 1.32 2 2 C3.32 2.33 4.64 2.66 6 3 C5.071875 3.1546875 5.071875 3.1546875 4.125 3.3125 C1.63473516 3.87525373 1.63473516 3.87525373 0 7 C-0.66 7 -1.32 7 -2 7 C-1.125 1.125 -1.125 1.125 0 0 Z " fill="#DBD7EC" transform="translate(59,84)"/>
<path d="M0 0 C1.98 0.99 3.96 1.98 6 3 C5.01 4.485 5.01 4.485 4 6 C2.68 5.67 1.36 5.34 0 5 C0 3.35 0 1.7 0 0 Z " fill="#EFEEF1" transform="translate(9,26)"/>
<path d="M0 0 C1.89213369 2.38573379 3.02391783 4.07175348 4 7 C2.35 6.67 0.7 6.34 -1 6 C-1.33 5.01 -1.66 4.02 -2 3 C-1.34 2.01 -0.68 1.02 0 0 Z " fill="#423B64" transform="translate(90,24)"/>
<path d="M0 0 C-0.8125 1.9375 -0.8125 1.9375 -2 4 C-2.99 4.33 -3.98 4.66 -5 5 C-5.33 4.34 -5.66 3.68 -6 3 C-6.99 2.34 -7.98 1.68 -9 1 C-5.92677456 0.08941469 -3.19902639 -0.08886184 0 0 Z " fill="#3D375E" transform="translate(141,23)"/>
<path d="M0 0 C0.99 0.33 1.98 0.66 3 1 C1.60667426 4.36720387 0.0210714 5.9859524 -3 8 C-3.33 7.01 -3.66 6.02 -4 5 C-3.34 5 -2.68 5 -2 5 C-1.7834375 4.0409375 -1.7834375 4.0409375 -1.5625 3.0625 C-1 1 -1 1 0 0 Z " fill="#EEECF0" transform="translate(37,140)"/>
<path d="M0 0 C0.66 0 1.32 0 2 0 C1.67 1.98 1.34 3.96 1 6 C-1.375 6.625 -1.375 6.625 -4 7 C-4.66 6.34 -5.32 5.68 -6 5 C-4.68 4.67 -3.36 4.34 -2 4 C-2 3.34 -2 2.68 -2 2 C-1.34 2 -0.68 2 0 2 C0 1.34 0 0.68 0 0 Z " fill="#362760" transform="translate(71,128)"/>
<path d="M0 0 C0.66 0.66 1.32 1.32 2 2 C0.68 4.64 -0.64 7.28 -2 10 C-2.66 8.68 -3.32 7.36 -4 6 C-3.67 5.01 -3.34 4.02 -3 3 C-2.67 3.33 -2.34 3.66 -2 4 C-1.34 2.68 -0.68 1.36 0 0 Z " fill="#EDE8F4" transform="translate(77,43)"/>
<path d="M0 0 C0.33 0 0.66 0 1 0 C1 1.65 1 3.3 1 5 C-5.15234375 4.4140625 -5.15234375 4.4140625 -7 4 C-7.33 3.34 -7.66 2.68 -8 2 C-6.865625 1.855625 -5.73125 1.71125 -4.5625 1.5625 C-1.19222799 1.38828522 -1.19222799 1.38828522 0 0 Z " fill="#37345F" transform="translate(166,23)"/>
<path d="M0 0 C0.99 0 1.98 0 3 0 C4.06546953 3.1964086 4.07427838 5.65747276 4 9 C3.01 8.67 2.02 8.34 1 8 C0.67 5.36 0.34 2.72 0 0 Z " fill="#CFCBE0" transform="translate(123,17)"/>
<path d="M0 0 C0.66 0.33 1.32 0.66 2 1 C2 2.98 2 4.96 2 7 C1.67 6.01 1.34 5.02 1 4 C0.01 4 -0.98 4 -2 4 C-2 4.99 -2 5.98 -2 7 C-2.99 6.67 -3.98 6.34 -5 6 C-4.34 6 -3.68 6 -3 6 C-2.87625 5.195625 -2.7525 4.39125 -2.625 3.5625 C-2.41875 2.716875 -2.2125 1.87125 -2 1 C-1.34 0.67 -0.68 0.34 0 0 Z " fill="#433C74" transform="translate(171,11)"/>
<path d="M0 0 C1.98 0 3.96 0 6 0 C7.0625 1.875 7.0625 1.875 8 4 C7.67 4.66 7.34 5.32 7 6 C6.34 6 5.68 6 5 6 C4.67 5.01 4.34 4.02 4 3 C2.00334686 1.31461399 2.00334686 1.31461399 0 0 Z " fill="#DAD6EA" transform="translate(18,8)"/>
<path d="M0 0 C1.65 0 3.3 0 5 0 C4.67 2.64 4.34 5.28 4 8 C3.67 7.01 3.34 6.02 3 5 C2.34 4.67 1.68 4.34 1 4 C0.375 1.9375 0.375 1.9375 0 0 Z " fill="#4A4561" transform="translate(179,5)"/>
<path d="M0 0 C0 0.33 0 0.66 0 1 C-1.423125 1.309375 -1.423125 1.309375 -2.875 1.625 C-6.29166667 2.70833333 -6.29166667 2.70833333 -7.375 6.125 C-7.58125 7.07375 -7.7875 8.0225 -8 9 C-8.33 9 -8.66 9 -9 9 C-9 6.36 -9 3.72 -9 1 C-6.04335481 -0.4783226 -3.25770263 -0.06032783 0 0 Z " fill="#E1DEEB" transform="translate(90,160)"/>
<path d="M0 0 C-2.63548461 2.63548461 -4.32354922 2.64649512 -8 3 C-11.375 2.5625 -11.375 2.5625 -14 2 C-14 1.67 -14 1.34 -14 1 C-9.23692563 0.04738513 -4.8333472 -0.08333357 0 0 Z " fill="#271853" transform="translate(86,146)"/>
<path d="M0 0 C0.99 0.33 1.98 0.66 3 1 C3.6875 3.0625 3.6875 3.0625 4 5 C1.69 4.67 -0.62 4.34 -3 4 C-3 3.34 -3 2.68 -3 2 C-2.01 1.34 -1.02 0.68 0 0 Z " fill="#2F2258" transform="translate(48,137)"/>
<path d="M0 0 C1.32 0 2.64 0 4 0 C3.67 0.99 3.34 1.98 3 3 C2.34 3 1.68 3 1 3 C0.87625 3.639375 0.7525 4.27875 0.625 4.9375 C0.41875 5.618125 0.2125 6.29875 0 7 C-0.99 7.495 -0.99 7.495 -2 8 C-1.34 5.36 -0.68 2.72 0 0 Z " fill="#281855" transform="translate(73,128)"/>
<path d="M0 0 C1.32 1.32 2.64 2.64 4 4 C0.625 4.625 0.625 4.625 -3 5 C-3.66 4.34 -4.32 3.68 -5 3 C-4.34 3 -3.68 3 -3 3 C-3 2.34 -3 1.68 -3 1 C-2.01 0.67 -1.02 0.34 0 0 Z " fill="#362E5F" transform="translate(67,103)"/>
<path d="M0 0 C1.65 0 3.3 0 5 0 C4.67 1.98 4.34 3.96 4 6 C3.01 5.67 2.02 5.34 1 5 C0.67 3.35 0.34 1.7 0 0 Z " fill="#2C2847" transform="translate(62,87)"/>
<path d="M0 0 C0.66 0 1.32 0 2 0 C2 0.66 2 1.32 2 2 C2.99 1.67 3.98 1.34 5 1 C5 1.66 5 2.32 5 3 C5.99 3.33 6.98 3.66 8 4 C3.545 4.495 3.545 4.495 -1 5 C-0.67 3.35 -0.34 1.7 0 0 Z " fill="#3B345C" transform="translate(59,80)"/>
<path d="M0 0 C2.375 -0.125 2.375 -0.125 5 0 C5.66 0.66 6.32 1.32 7 2 C6.625 4.125 6.625 4.125 6 6 C4.02 6 2.04 6 0 6 C1.32 4.35 2.64 2.7 4 1 C2.68 0.67 1.36 0.34 0 0 Z " fill="#D7D4E4" transform="translate(137,22)"/>
<path d="M0 0 C-0.33 0.66 -0.66 1.32 -1 2 C-3.64 2 -6.28 2 -9 2 C-9 1.34 -9 0.68 -9 0 C-5.67465243 -1.10844919 -3.37817425 -0.84454356 0 0 Z " fill="#261E54" transform="translate(75,26)"/>
<path d="M0 0 C2.97 0.495 2.97 0.495 6 1 C6 1.99 6 2.98 6 4 C3.36 4 0.72 4 -2 4 C-2.33 3.34 -2.66 2.68 -3 2 C-2.01 1.67 -1.02 1.34 0 1 C0 0.67 0 0.34 0 0 Z " fill="#241C4D" transform="translate(14,24)"/>
<path d="M0 0 C2.05078125 0.03255208 4.1015625 0.06510417 6.15234375 0.09765625 C6.15234375 0.75765625 6.15234375 1.41765625 6.15234375 2.09765625 C3.07617188 2.390625 3.07617188 2.390625 0 2.68359375 C-0.60972656 2.82023437 -1.21945313 2.956875 -1.84765625 3.09765625 C-2.17765625 3.75765625 -2.50765625 4.41765625 -2.84765625 5.09765625 C-2.84765625 0.15051037 -2.84765625 0.15051037 0 0 Z " fill="#484171" transform="translate(67.84765625,22.90234375)"/>
<path d="M0 0 C1.32 0.66 2.64 1.32 4 2 C3.01 3.485 3.01 3.485 2 5 C-0.625 5.1875 -0.625 5.1875 -3 5 C-2.01 3.35 -1.02 1.7 0 0 Z " fill="#373159" transform="translate(161,11)"/>
<path d="M0 0 C1.32 0 2.64 0 4 0 C3.6875 2.375 3.6875 2.375 3 5 C2.01 5.66 1.02 6.32 0 7 C0 4.69 0 2.38 0 0 Z " fill="#F0EEF8" transform="translate(173,12)"/>
<path d="M0 0 C1.65 0 3.3 0 5 0 C4.67 1.32 4.34 2.64 4 4 C2.35 3.67 0.7 3.34 -1 3 C-0.67 2.01 -0.34 1.02 0 0 Z " fill="#FEFFED" transform="translate(69,3)"/>
<path d="M0 0 C0.33 1.32 0.66 2.64 1 4 C4.465 3.505 4.465 3.505 8 3 C7.34 4.32 6.68 5.64 6 7 C5.34 7 4.68 7 4 7 C4 6.34 4 5.68 4 5 C2.68 5 1.36 5 0 5 C0 3.35 0 1.7 0 0 Z " fill="#52497D" transform="translate(116,165)"/>
<path d="M0 0 C0.66 0.33 1.32 0.66 2 1 C0.25 6.75 0.25 6.75 -2 9 C-2.66 8.01 -3.32 7.02 -4 6 C-3.67 5.01 -3.34 4.02 -3 3 C-2.34 3.33 -1.68 3.66 -1 4 C-0.67 2.68 -0.34 1.36 0 0 Z " fill="#E9E5EF" transform="translate(21,160)"/>
<path d="M0 0 C0.33 1.32 0.66 2.64 1 4 C1.99 4 2.98 4 4 4 C4.33 3.34 4.66 2.68 5 2 C4.67 4.31 4.34 6.62 4 9 C3.34 8.67 2.68 8.34 2 8 C2 7.01 2 6.02 2 5 C1.34 5 0.68 5 0 5 C0 3.35 0 1.7 0 0 Z " fill="#CBC6E0" transform="translate(151,20)"/>
<path d="M0 0 C-0.33 2.31 -0.66 4.62 -1 7 C-1.99 6.67 -2.98 6.34 -4 6 C-3.625 3.5625 -3.625 3.5625 -3 1 C-1 0 -1 0 0 0 Z " fill="#E5E3EC" transform="translate(76,16)"/>
<path d="M0 0 C0.33 1.32 0.66 2.64 1 4 C1.66 4 2.32 4 3 4 C3 6.31 3 8.62 3 11 C2.34 9.68 1.68 8.36 1 7 C0.34 7.66 -0.32 8.32 -1 9 C-0.67 6.03 -0.34 3.06 0 0 Z " fill="#C4C1D4" transform="translate(60,13)"/>
<path d="M0 0 C0.66 1.32 1.32 2.64 2 4 C1.54625 4.433125 1.0925 4.86625 0.625 5.3125 C-1.20024334 7.10798342 -1.20024334 7.10798342 -3 10 C-3.36923077 4.58461538 -3.36923077 4.58461538 -1.5 1.625 C-1.005 1.08875 -0.51 0.5525 0 0 Z " fill="#28214A" transform="translate(66,13)"/>
<path d="M0 0 C1.32 0.33 2.64 0.66 4 1 C4 1.99 4 2.98 4 4 C1.36 4.33 -1.28 4.66 -4 5 C-4 4.34 -4 3.68 -4 3 C-2.68 3 -1.36 3 0 3 C0 2.01 0 1.02 0 0 Z " fill="#221A4A" transform="translate(20,4)"/>
<path d="M0 0 C0.33 0 0.66 0 1 0 C1 1.65 1 3.3 1 5 C1.99 5.33 2.98 5.66 4 6 C2.02 6.99 2.02 6.99 0 8 C-0.66 6.68 -1.32 5.36 -2 4 C-1.34 4 -0.68 4 0 4 C0 2.68 0 1.36 0 0 Z " fill="#4F496B" transform="translate(85,164)"/>
<path d="M0 0 C0.66 2.64 1.32 5.28 2 8 C-2.875 3.25 -2.875 3.25 -4 1 C-2 0 -2 0 0 0 Z " fill="#DFDEEA" transform="translate(156,148)"/>
<path d="M0 0 C2.475 0.99 2.475 0.99 5 2 C5 2.99 5 3.98 5 5 C2.36 4.34 -0.28 3.68 -3 3 C-2.01 2.67 -1.02 2.34 0 2 C0 1.34 0 0.68 0 0 Z " fill="#281F51" transform="translate(125,131)"/>
<path d="M0 0 C0.33 0 0.66 0 1 0 C1 1.98 1 3.96 1 6 C3.97 6 6.94 6 10 6 C10 6.33 10 6.66 10 7 C6.37 7.33 2.74 7.66 -1 8 C-0.67 5.36 -0.34 2.72 0 0 Z " fill="#59527B" transform="translate(77,95)"/>
<path d="M0 0 C0 3 0 3 -1.5 4.6875 C-1.995 5.120625 -2.49 5.55375 -3 6 C-3.99 5.34 -4.98 4.68 -6 4 C-5.67 3.01 -5.34 2.02 -5 1 C-3.35 0.67 -1.7 0.34 0 0 Z " fill="#DBD8E9" transform="translate(62,74)"/>
<path d="M0 0 C0 1.32 0 2.64 0 4 C-1.65 4 -3.3 4 -5 4 C-5 3.34 -5 2.68 -5 2 C-5.99 1.67 -6.98 1.34 -8 1 C-2.25 0 -2.25 0 0 0 Z " fill="#DFDCEA" transform="translate(76,27)"/>
<path d="M0 0 C0.66 1.32 1.32 2.64 2 4 C0.25 4.75 0.25 4.75 -2 5 C-4.25 3.0625 -4.25 3.0625 -6 1 C-3.92446352 0.4465236 -2.15634036 0 0 0 Z " fill="#443C6B" transform="translate(22,23)"/>
<path d="M0 0 C0.66 0.33 1.32 0.66 2 1 C1.67 3.64 1.34 6.28 1 9 C0.01 8.67 -0.98 8.34 -2 8 C-2 6.68 -2 5.36 -2 4 C-1.34 4 -0.68 4 0 4 C-0.33 3.01 -0.66 2.02 -1 1 C-0.67 0.67 -0.34 0.34 0 0 Z " fill="#3A3169" transform="translate(151,11)"/>
<path d="M0 0 C1.99954746 -0.04254356 4.00041636 -0.04080783 6 0 C7 1 7 1 7.0625 4.0625 C7.041875 5.031875 7.02125 6.00125 7 7 C5 4 5 4 5 2 C3.35 1.67 1.7 1.34 0 1 C0 0.67 0 0.34 0 0 Z " fill="#1F1F42" transform="translate(128,161)"/>
<path d="M0 0 C4.875 0.875 4.875 0.875 6 2 C6.04092937 4.33297433 6.04241723 6.66705225 6 9 C5.67 9 5.34 9 5 9 C5 7.02 5 5.04 5 3 C4.01 3.33 3.02 3.66 2 4 C2 3.01 2 2.02 2 1 C1.34 0.67 0.68 0.34 0 0 Z " fill="#C8C3E1" transform="translate(53,159)"/>
<path d="M0 0 C1.32 1.65 2.64 3.3 4 5 C3.67 5.66 3.34 6.32 3 7 C0.5 5.625 0.5 5.625 -2 4 C-2 3.34 -2 2.68 -2 2 C-1.34 2 -0.68 2 0 2 C0 1.34 0 0.68 0 0 Z " fill="#3C3658" transform="translate(139,113)"/>
<path d="M0 0 C1.2380014 3.57644848 0.74926071 6.33694766 0 10 C-1.85776765 6.86501708 -2.20140476 4.62528568 -2 1 C-1.34 0.67 -0.68 0.34 0 0 Z " fill="#251A4E" transform="translate(77,91)"/>
<path d="M0 0 C0.144375 0.598125 0.28875 1.19625 0.4375 1.8125 C0.8872439 3.56150404 1.42892341 5.28677023 2 7 C0.68 7.33 -0.64 7.66 -2 8 C-2.33 7.34 -2.66 6.68 -3 6 C-2.06553465 3.96855359 -1.06775224 1.96466413 0 0 Z " fill="#403362" transform="translate(78,45)"/>
<path d="M0 0 C-0.99 0.495 -0.99 0.495 -2 1 C-2 1.66 -2 2.32 -2 3 C-4.31 3 -6.62 3 -9 3 C-6.38997624 -0.48003168 -4.1689578 -0.27793052 0 0 Z " fill="#F9FAEB" transform="translate(29,29)"/>
<path d="M0 0 C2.97 0.495 2.97 0.495 6 1 C5.34 2.32 4.68 3.64 4 5 C2.68 4.34 1.36 3.68 0 3 C0 2.01 0 1.02 0 0 Z " fill="#F4F3F7" transform="translate(115,27)"/>
<path d="M0 0 C-0.33 1.32 -0.66 2.64 -1 4 C-1.66 4 -2.32 4 -3 4 C-3.33 4.66 -3.66 5.32 -4 6 C-4.33 4.35 -4.66 2.7 -5 1 C-2 0 -2 0 0 0 Z " fill="#F3F2F5" transform="translate(158,13)"/>
<path d="M0 0 C0.66 0.33 1.32 0.66 2 1 C1.67 3.97 1.34 6.94 1 10 C0.67 10 0.34 10 0 10 C-1.125 2.25 -1.125 2.25 0 0 Z " fill="#302B4A" transform="translate(58,11)"/>
<path d="M0 0 C4.875 1.75 4.875 1.75 6 4 C4.68 3.67 3.36 3.34 2 3 C2 3.66 2 4.32 2 5 C1.34 5 0.68 5 0 5 C-0.5625 3.0625 -0.5625 3.0625 -1 1 C-0.67 0.67 -0.34 0.34 0 0 Z " fill="#332B60" transform="translate(24,4)"/>
<path d="M0 0 C1.65 0 3.3 0 5 0 C5 0.66 5 1.32 5 2 C5.66 2.33 6.32 2.66 7 3 C5.02 3.33 3.04 3.66 1 4 C0.67 2.68 0.34 1.36 0 0 Z " fill="#F7F9E7" transform="translate(149,0)"/>
<path d="M0 0 C1.4540625 0.0309375 1.4540625 0.0309375 2.9375 0.0625 C1.9475 0.5575 1.9475 0.5575 0.9375 1.0625 C0.9375 1.7225 0.9375 2.3825 0.9375 3.0625 C0.2775 3.0625 -0.3825 3.0625 -1.0625 3.0625 C-1.7225 3.7225 -2.3825 4.3825 -3.0625 5.0625 C-3.625 3.125 -3.625 3.125 -4.0625 1.0625 C-3.0625 0.0625 -3.0625 0.0625 0 0 Z " fill="#F7F8EB" transform="translate(103.0625,-0.0625)"/>
<path d="M0 0 C0.33 0.66 0.66 1.32 1 2 C1.66 2 2.32 2 3 2 C1.25 6.875 1.25 6.875 -1 8 C-0.67 5.36 -0.34 2.72 0 0 Z " fill="#585573" transform="translate(17,173)"/>
<path d="M0 0 C1.98 0.99 3.96 1.98 6 3 C5.01 4.485 5.01 4.485 4 6 C2 5 2 5 0 3 C0 2.01 0 1.02 0 0 Z " fill="#EFEDF6" transform="translate(139,162)"/>
<path d="M0 0 C2 3 2 3 1.625 5.6875 C1.41875 6.450625 1.2125 7.21375 1 8 C0.34 8 -0.32 8 -1 8 C-1.125 2.25 -1.125 2.25 0 0 Z " fill="#C5C2D1" transform="translate(51,160)"/>
<path d="M0 0 C6.75 0.75 6.75 0.75 9 3 C7.35 3.33 5.7 3.66 4 4 C3.67 3.34 3.34 2.68 3 2 C2.01 1.34 1.02 0.68 0 0 Z " fill="#261A4E" transform="translate(40,154)"/>
<path d="M0 0 C1.65 0 3.3 0 5 0 C5.33 0.66 5.66 1.32 6 2 C3.36 2.66 0.72 3.32 -2 4 C-2 3.34 -2 2.68 -2 2 C-1.34 2 -0.68 2 0 2 C0 1.34 0 0.68 0 0 Z " fill="#E8E4F3" transform="translate(61,128)"/>
<path d="M0 0 C1.65 0 3.3 0 5 0 C4.67 1.32 4.34 2.64 4 4 C2.68 4.33 1.36 4.66 0 5 C0 3.35 0 1.7 0 0 Z " fill="#201C54" transform="translate(85,89)"/>
<path d="M0 0 C0.99 1.32 1.98 2.64 3 4 C2.01 4.495 2.01 4.495 1 5 C-0.13350534 7.01669827 -0.13350534 7.01669827 -1 9 C-1 5.88772805 -0.54372951 3.05847848 0 0 Z " fill="#443A73" transform="translate(106,53)"/>
<path d="M0 0 C0.99 0 1.98 0 3 0 C3 1.98 3 3.96 3 6 C2.01 6.33 1.02 6.66 0 7 C0 4.69 0 2.38 0 0 Z " fill="#DFDBEC" transform="translate(171,21)"/>
<path d="M0 0 C2.475 0.495 2.475 0.495 5 1 C5 1.99 5 2.98 5 4 C3.35 4 1.7 4 0 4 C0 2.68 0 1.36 0 0 Z " fill="#4A4467" transform="translate(43,24)"/>
<path d="M0 0 C0.33 0.66 0.66 1.32 1 2 C1.66 2 2.32 2 3 2 C3.33 3.32 3.66 4.64 4 6 C3.34 6 2.68 6 2 6 C1.67 6.66 1.34 7.32 1 8 C-0.35439668 5.29120665 -0.06501451 2.99066732 0 0 Z " fill="#3D346E" transform="translate(34,16)"/>
<path d="M0 0 C1.98 0.495 1.98 0.495 4 1 C4 1.99 4 2.98 4 4 C2.35 4 0.7 4 -1 4 C-0.67 2.68 -0.34 1.36 0 0 Z " fill="#E9E7F1" transform="translate(180,1)"/>
</svg>
